<mxfile>
    <diagram id="FZo91oGcvx7lr_GqXgS-" name="Assets">
        <mxGraphModel dx="1823" dy="948" grid="1" gridSize="10" guides="1" tooltips="1" connect="1" arrows="1" fold="1" page="0" pageScale="1" pageWidth="827" pageHeight="1169" math="0" shadow="0">
            <root>
                <mxCell id="0"/>
                <mxCell id="1" parent="0"/>
                <mxCell id="2" value="Login" style="swimlane;fontStyle=1;align=center;verticalAlign=top;childLayout=stackLayout;horizontal=1;startSize=26;horizontalStack=0;resizeParent=1;resizeParentMax=0;resizeLast=0;collapsible=1;marginBottom=0;fontSize=16;" parent="1" vertex="1">
                    <mxGeometry x="-140" y="420" width="300" height="250" as="geometry"/>
                </mxCell>
                <mxCell id="3" value="- document: htmlElement&#10;- localStorage: String&#10;- PREVIOUS_LOCATION: String&#10;- firestore: Firestore" style="text;strokeColor=none;fillColor=none;align=left;verticalAlign=top;spacingLeft=4;spacingRight=4;overflow=hidden;rotatable=0;points=[[0,0.5],[1,0.5]];portConstraint=eastwest;fontSize=16;" parent="2" vertex="1">
                    <mxGeometry y="26" width="300" height="94" as="geometry"/>
                </mxCell>
                <mxCell id="4" value="" style="line;strokeWidth=1;fillColor=none;align=left;verticalAlign=middle;spacingTop=-1;spacingLeft=3;spacingRight=3;rotatable=0;labelPosition=right;points=[];portConstraint=eastwest;" parent="2" vertex="1">
                    <mxGeometry y="120" width="300" height="8" as="geometry"/>
                </mxCell>
                <mxCell id="5" value="- handleSubmitEmployee(e: event)&#10;- handleSubmitAdmin(e: event)&#10;- checkIfUserExists(user: User): boolean&#10;- createUser(user: User)&#10;- onNavigate(pathname: String)" style="text;strokeColor=none;fillColor=none;align=left;verticalAlign=top;spacingLeft=4;spacingRight=4;overflow=hidden;rotatable=0;points=[[0,0.5],[1,0.5]];portConstraint=eastwest;fontSize=16;" parent="2" vertex="1">
                    <mxGeometry y="128" width="300" height="122" as="geometry"/>
                </mxCell>
                <mxCell id="18" value="User" style="swimlane;fontStyle=1;align=center;verticalAlign=top;childLayout=stackLayout;horizontal=1;startSize=26;horizontalStack=0;resizeParent=1;resizeParentMax=0;resizeLast=0;collapsible=1;marginBottom=0;fontSize=16;" parent="1" vertex="1">
                    <mxGeometry x="-440" y="489" width="160" height="144" as="geometry">
                        <mxRectangle x="480" y="100" width="70" height="26" as="alternateBounds"/>
                    </mxGeometry>
                </mxCell>
                <mxCell id="22" value="- type: String&#10;- email : String&#10;- password: String&#10;- status: String" style="text;strokeColor=none;fillColor=none;align=left;verticalAlign=top;spacingLeft=4;spacingRight=4;overflow=hidden;rotatable=0;points=[[0,0.5],[1,0.5]];portConstraint=eastwest;fontSize=16;" parent="18" vertex="1">
                    <mxGeometry y="26" width="160" height="84" as="geometry"/>
                </mxCell>
                <mxCell id="20" value="" style="line;strokeWidth=1;fillColor=none;align=left;verticalAlign=middle;spacingTop=-1;spacingLeft=3;spacingRight=3;rotatable=0;labelPosition=right;points=[];portConstraint=eastwest;" parent="18" vertex="1">
                    <mxGeometry y="110" width="160" height="8" as="geometry"/>
                </mxCell>
                <mxCell id="21" value=" " style="text;strokeColor=none;fillColor=none;align=left;verticalAlign=top;spacingLeft=4;spacingRight=4;overflow=hidden;rotatable=0;points=[[0,0.5],[1,0.5]];portConstraint=eastwest;" parent="18" vertex="1">
                    <mxGeometry y="118" width="160" height="26" as="geometry"/>
                </mxCell>
                <mxCell id="24" style="edgeStyle=orthogonalEdgeStyle;rounded=0;orthogonalLoop=1;jettySize=auto;html=1;startArrow=none;startFill=0;endArrow=none;endFill=0;fontSize=16;entryX=0;entryY=0.5;entryDx=0;entryDy=0;" parent="1" source="22" target="3" edge="1">
                    <mxGeometry relative="1" as="geometry">
                        <mxPoint x="70" y="755" as="targetPoint"/>
                    </mxGeometry>
                </mxCell>
                <mxCell id="25" value="Router" style="swimlane;fontStyle=1;align=center;verticalAlign=top;childLayout=stackLayout;horizontal=1;startSize=26;horizontalStack=0;resizeParent=1;resizeParentMax=0;resizeLast=0;collapsible=1;marginBottom=0;fontSize=16;" parent="1" vertex="1">
                    <mxGeometry x="230" y="-200" width="440" height="140" as="geometry"/>
                </mxCell>
                <mxCell id="26" value="+ pathname: String&#10;+ history : History&#10;+ rootDiv : HtmlElement" style="text;strokeColor=none;fillColor=none;align=left;verticalAlign=top;spacingLeft=4;spacingRight=4;overflow=hidden;rotatable=0;points=[[0,0.5],[1,0.5]];portConstraint=eastwest;fontSize=16;" parent="25" vertex="1">
                    <mxGeometry y="26" width="440" height="74" as="geometry"/>
                </mxCell>
                <mxCell id="27" value="" style="line;strokeWidth=1;fillColor=none;align=left;verticalAlign=middle;spacingTop=-1;spacingLeft=3;spacingRight=3;rotatable=0;labelPosition=right;points=[];portConstraint=eastwest;" parent="25" vertex="1">
                    <mxGeometry y="100" width="440" height="8" as="geometry"/>
                </mxCell>
                <mxCell id="28" value="+ onpopstate() " style="text;strokeColor=none;fillColor=none;align=left;verticalAlign=top;spacingLeft=4;spacingRight=4;overflow=hidden;rotatable=0;points=[[0,0.5],[1,0.5]];portConstraint=eastwest;fontSize=16;" parent="25" vertex="1">
                    <mxGeometry y="108" width="440" height="32" as="geometry"/>
                </mxCell>
                <mxCell id="33" value="Bills" style="swimlane;fontStyle=1;align=center;verticalAlign=top;childLayout=stackLayout;horizontal=1;startSize=26;horizontalStack=0;resizeParent=1;resizeParentMax=0;resizeLast=0;collapsible=1;marginBottom=0;fontSize=16;" parent="1" vertex="1">
                    <mxGeometry x="380" y="431" width="300" height="218" as="geometry"/>
                </mxCell>
                <mxCell id="34" value="- document: htmlElement&#10;- localStorage: String&#10;- firestore: Firestore&#10;" style="text;strokeColor=none;fillColor=none;align=left;verticalAlign=top;spacingLeft=4;spacingRight=4;overflow=hidden;rotatable=0;points=[[0,0.5],[1,0.5]];portConstraint=eastwest;fontSize=16;" parent="33" vertex="1">
                    <mxGeometry y="26" width="300" height="74" as="geometry"/>
                </mxCell>
                <mxCell id="35" value="" style="line;strokeWidth=1;fillColor=none;align=left;verticalAlign=middle;spacingTop=-1;spacingLeft=3;spacingRight=3;rotatable=0;labelPosition=right;points=[];portConstraint=eastwest;" parent="33" vertex="1">
                    <mxGeometry y="100" width="300" height="8" as="geometry"/>
                </mxCell>
                <mxCell id="36" value="- handleClickNewbill()&#10;- handleclickIconEye(icon: HtmlElement)&#10;- getBills()&#10;- onNavigate(pathname: String)" style="text;strokeColor=none;fillColor=none;align=left;verticalAlign=top;spacingLeft=4;spacingRight=4;overflow=hidden;rotatable=0;points=[[0,0.5],[1,0.5]];portConstraint=eastwest;fontSize=16;" parent="33" vertex="1">
                    <mxGeometry y="108" width="300" height="110" as="geometry"/>
                </mxCell>
                <mxCell id="37" value="NewBill" style="swimlane;fontStyle=1;align=center;verticalAlign=top;childLayout=stackLayout;horizontal=1;startSize=26;horizontalStack=0;resizeParent=1;resizeParentMax=0;resizeLast=0;collapsible=1;marginBottom=0;fontSize=16;" parent="1" vertex="1">
                    <mxGeometry x="970" y="431" width="300" height="260" as="geometry"/>
                </mxCell>
                <mxCell id="38" value="+ document: htmlElement&#10;- localStorage: String&#10;- firestore: Firestore&#10;- formNewBill: FormData&#10;- file : HtmlElement" style="text;strokeColor=none;fillColor=none;align=left;verticalAlign=top;spacingLeft=4;spacingRight=4;overflow=hidden;rotatable=0;points=[[0,0.5],[1,0.5]];portConstraint=eastwest;fontSize=16;" parent="37" vertex="1">
                    <mxGeometry y="26" width="300" height="104" as="geometry"/>
                </mxCell>
                <mxCell id="39" value="" style="line;strokeWidth=1;fillColor=none;align=left;verticalAlign=middle;spacingTop=-1;spacingLeft=3;spacingRight=3;rotatable=0;labelPosition=right;points=[];portConstraint=eastwest;" parent="37" vertex="1">
                    <mxGeometry y="130" width="300" height="8" as="geometry"/>
                </mxCell>
                <mxCell id="40" value="- handleChangeFile(e: event)&#10;- handleSubmit(e:event)&#10;- createBill(bill: Object)&#10;- onNavigate(pathname: String)" style="text;strokeColor=none;fillColor=none;align=left;verticalAlign=top;spacingLeft=4;spacingRight=4;overflow=hidden;rotatable=0;points=[[0,0.5],[1,0.5]];portConstraint=eastwest;fontSize=16;" parent="37" vertex="1">
                    <mxGeometry y="138" width="300" height="122" as="geometry"/>
                </mxCell>
                <mxCell id="42" value="Dashboard" style="swimlane;fontStyle=1;align=center;verticalAlign=top;childLayout=stackLayout;horizontal=1;startSize=26;horizontalStack=0;resizeParent=1;resizeParentMax=0;resizeLast=0;collapsible=1;marginBottom=0;fontSize=16;" parent="1" vertex="1">
                    <mxGeometry x="1540" y="431" width="300" height="260" as="geometry"/>
                </mxCell>
                <mxCell id="43" value="- document: htmlElement&#10;- localStorage: String&#10;- firestore: Firestore&#10;- bills: Array" style="text;strokeColor=none;fillColor=none;align=left;verticalAlign=top;spacingLeft=4;spacingRight=4;overflow=hidden;rotatable=0;points=[[0,0.5],[1,0.5]];portConstraint=eastwest;fontSize=16;" parent="42" vertex="1">
                    <mxGeometry y="26" width="300" height="104" as="geometry"/>
                </mxCell>
                <mxCell id="44" value="" style="line;strokeWidth=1;fillColor=none;align=left;verticalAlign=middle;spacingTop=-1;spacingLeft=3;spacingRight=3;rotatable=0;labelPosition=right;points=[];portConstraint=eastwest;" parent="42" vertex="1">
                    <mxGeometry y="130" width="300" height="8" as="geometry"/>
                </mxCell>
                <mxCell id="45" value="- handleClickIconeye(icon=HtmlElement)&#10;- handleEditTicket(bill: Object, bills: Array)&#10;- onNavigate(pathname: String)" style="text;strokeColor=none;fillColor=none;align=left;verticalAlign=top;spacingLeft=4;spacingRight=4;overflow=hidden;rotatable=0;points=[[0,0.5],[1,0.5]];portConstraint=eastwest;fontSize=16;fontColor=#F0F0F0;" parent="42" vertex="1">
                    <mxGeometry y="138" width="300" height="122" as="geometry"/>
                </mxCell>
                <mxCell id="53" value="OnNavigate" style="swimlane;fontStyle=1;align=center;verticalAlign=top;childLayout=stackLayout;horizontal=1;startSize=26;horizontalStack=0;resizeParent=1;resizeParentMax=0;resizeLast=0;collapsible=1;marginBottom=0;fontSize=16;" parent="1" vertex="1">
                    <mxGeometry x="230" y="50" width="440" height="180" as="geometry"/>
                </mxCell>
                <mxCell id="54" value="+ divIcon1 : HtmlElement&#10;+ divIcon2 : Htmlelement" style="text;strokeColor=none;fillColor=none;align=left;verticalAlign=top;spacingLeft=4;spacingRight=4;overflow=hidden;rotatable=0;points=[[0,0.5],[1,0.5]];portConstraint=eastwest;fontSize=16;" parent="53" vertex="1">
                    <mxGeometry y="26" width="440" height="54" as="geometry"/>
                </mxCell>
                <mxCell id="55" value="" style="line;strokeWidth=1;fillColor=none;align=left;verticalAlign=middle;spacingTop=-1;spacingLeft=3;spacingRight=3;rotatable=0;labelPosition=right;points=[];portConstraint=eastwest;" parent="53" vertex="1">
                    <mxGeometry y="80" width="440" height="8" as="geometry"/>
                </mxCell>
                <mxCell id="56" value="+ history.pushState(state: Object, title: String, [url: String])&#10;+ ROUTES(pathname: String) : String&#10;+ &#10;+ catch(error: Error)" style="text;strokeColor=none;fillColor=none;align=left;verticalAlign=top;spacingLeft=4;spacingRight=4;overflow=hidden;rotatable=0;points=[[0,0.5],[1,0.5]];portConstraint=eastwest;fontSize=16;" parent="53" vertex="1">
                    <mxGeometry y="88" width="440" height="92" as="geometry"/>
                </mxCell>
                <mxCell id="57" value="ROUTES_PATH" style="swimlane;fontStyle=5;align=center;verticalAlign=top;childLayout=stackLayout;horizontal=1;startSize=26;horizontalStack=0;resizeParent=1;resizeParentMax=0;resizeLast=0;collapsible=1;marginBottom=0;fontSize=16;" parent="1" vertex="1">
                    <mxGeometry x="800" y="50" width="200" height="150" as="geometry"/>
                </mxCell>
                <mxCell id="58" value="+ Login: String&#10;+ Bills: String&#10;+ NewBill : String&#10;+ Admin: String" style="text;strokeColor=none;fillColor=none;align=left;verticalAlign=top;spacingLeft=4;spacingRight=4;overflow=hidden;rotatable=0;points=[[0,0.5],[1,0.5]];portConstraint=eastwest;fontSize=16;" parent="57" vertex="1">
                    <mxGeometry y="26" width="200" height="94" as="geometry"/>
                </mxCell>
                <mxCell id="59" value="" style="line;strokeWidth=1;fillColor=none;align=left;verticalAlign=middle;spacingTop=-1;spacingLeft=3;spacingRight=3;rotatable=0;labelPosition=right;points=[];portConstraint=eastwest;" parent="57" vertex="1">
                    <mxGeometry y="120" width="200" height="8" as="geometry"/>
                </mxCell>
                <mxCell id="60" value=" " style="text;strokeColor=none;fillColor=none;align=left;verticalAlign=top;spacingLeft=4;spacingRight=4;overflow=hidden;rotatable=0;points=[[0,0.5],[1,0.5]];portConstraint=eastwest;fontSize=16;" parent="57" vertex="1">
                    <mxGeometry y="128" width="200" height="22" as="geometry"/>
                </mxCell>
                <mxCell id="63" value="LoginUI" style="swimlane;fontStyle=1;align=center;verticalAlign=top;childLayout=stackLayout;horizontal=1;startSize=26;horizontalStack=0;resizeParent=1;resizeParentMax=0;resizeLast=0;collapsible=1;marginBottom=0;fontSize=16;" parent="1" vertex="1">
                    <mxGeometry x="180" y="420" width="150" height="110" as="geometry"/>
                </mxCell>
                <mxCell id="64" value=" " style="text;strokeColor=none;fillColor=none;align=left;verticalAlign=top;spacingLeft=4;spacingRight=4;overflow=hidden;rotatable=0;points=[[0,0.5],[1,0.5]];portConstraint=eastwest;fontSize=16;" parent="63" vertex="1">
                    <mxGeometry y="26" width="150" height="34" as="geometry"/>
                </mxCell>
                <mxCell id="65" value="" style="line;strokeWidth=1;fillColor=none;align=left;verticalAlign=middle;spacingTop=-1;spacingLeft=3;spacingRight=3;rotatable=0;labelPosition=right;points=[];portConstraint=eastwest;" parent="63" vertex="1">
                    <mxGeometry y="60" width="150" height="8" as="geometry"/>
                </mxCell>
                <mxCell id="66" value="+ return(): String" style="text;strokeColor=none;fillColor=none;align=left;verticalAlign=top;spacingLeft=4;spacingRight=4;overflow=hidden;rotatable=0;points=[[0,0.5],[1,0.5]];portConstraint=eastwest;fontSize=16;" parent="63" vertex="1">
                    <mxGeometry y="68" width="150" height="42" as="geometry"/>
                </mxCell>
                <mxCell id="67" value="BillsUI" style="swimlane;fontStyle=1;align=center;verticalAlign=top;childLayout=stackLayout;horizontal=1;startSize=26;horizontalStack=0;resizeParent=1;resizeParentMax=0;resizeLast=0;collapsible=1;marginBottom=0;fontSize=16;" parent="1" vertex="1">
                    <mxGeometry x="700" y="431" width="210" height="208" as="geometry"/>
                </mxCell>
                <mxCell id="68" value="- data: Array&#10;- loading: boolean&#10;- modal : String" style="text;strokeColor=none;fillColor=none;align=left;verticalAlign=top;spacingLeft=4;spacingRight=4;overflow=hidden;rotatable=0;points=[[0,0.5],[1,0.5]];portConstraint=eastwest;fontSize=16;" parent="67" vertex="1">
                    <mxGeometry y="26" width="210" height="64" as="geometry"/>
                </mxCell>
                <mxCell id="69" value="" style="line;strokeWidth=1;fillColor=none;align=left;verticalAlign=middle;spacingTop=-1;spacingLeft=3;spacingRight=3;rotatable=0;labelPosition=right;points=[];portConstraint=eastwest;" parent="67" vertex="1">
                    <mxGeometry y="90" width="210" height="8" as="geometry"/>
                </mxCell>
                <mxCell id="70" value="- LoadingPage()&#10;- ErrorPage(error: Error)&#10;- rows(data: Array): String&#10;- row(bill: Object): String &#10;- return(): String" style="text;strokeColor=none;fillColor=none;align=left;verticalAlign=top;spacingLeft=4;spacingRight=4;overflow=hidden;rotatable=0;points=[[0,0.5],[1,0.5]];portConstraint=eastwest;fontSize=16;" parent="67" vertex="1">
                    <mxGeometry y="98" width="210" height="110" as="geometry"/>
                </mxCell>
                <mxCell id="71" value="NewBillUI" style="swimlane;fontStyle=1;align=center;verticalAlign=top;childLayout=stackLayout;horizontal=1;startSize=26;horizontalStack=0;resizeParent=1;resizeParentMax=0;resizeLast=0;collapsible=1;marginBottom=0;fontSize=16;" parent="1" vertex="1">
                    <mxGeometry x="1290" y="431" width="160" height="110" as="geometry"/>
                </mxCell>
                <mxCell id="72" value=" " style="text;strokeColor=none;fillColor=none;align=left;verticalAlign=top;spacingLeft=4;spacingRight=4;overflow=hidden;rotatable=0;points=[[0,0.5],[1,0.5]];portConstraint=eastwest;fontSize=16;" parent="71" vertex="1">
                    <mxGeometry y="26" width="160" height="34" as="geometry"/>
                </mxCell>
                <mxCell id="73" value="" style="line;strokeWidth=1;fillColor=none;align=left;verticalAlign=middle;spacingTop=-1;spacingLeft=3;spacingRight=3;rotatable=0;labelPosition=right;points=[];portConstraint=eastwest;" parent="71" vertex="1">
                    <mxGeometry y="60" width="160" height="8" as="geometry"/>
                </mxCell>
                <mxCell id="74" value="- return(): String" style="text;strokeColor=none;fillColor=none;align=left;verticalAlign=top;spacingLeft=4;spacingRight=4;overflow=hidden;rotatable=0;points=[[0,0.5],[1,0.5]];portConstraint=eastwest;fontSize=16;" parent="71" vertex="1">
                    <mxGeometry y="68" width="160" height="42" as="geometry"/>
                </mxCell>
                <mxCell id="75" value="DashboardUI" style="swimlane;fontStyle=1;align=center;verticalAlign=top;childLayout=stackLayout;horizontal=1;startSize=26;horizontalStack=0;resizeParent=1;resizeParentMax=0;resizeLast=0;collapsible=1;marginBottom=0;fontSize=16;" parent="1" vertex="1">
                    <mxGeometry x="1870" y="431" width="190" height="190" as="geometry"/>
                </mxCell>
                <mxCell id="76" value="- data: Array&#10;- loading: boolean&#10;- modal : String" style="text;strokeColor=none;fillColor=none;align=left;verticalAlign=top;spacingLeft=4;spacingRight=4;overflow=hidden;rotatable=0;points=[[0,0.5],[1,0.5]];portConstraint=eastwest;fontSize=16;" parent="75" vertex="1">
                    <mxGeometry y="26" width="190" height="74" as="geometry"/>
                </mxCell>
                <mxCell id="77" value="" style="line;strokeWidth=1;fillColor=none;align=left;verticalAlign=middle;spacingTop=-1;spacingLeft=3;spacingRight=3;rotatable=0;labelPosition=right;points=[];portConstraint=eastwest;" parent="75" vertex="1">
                    <mxGeometry y="100" width="190" height="8" as="geometry"/>
                </mxCell>
                <mxCell id="78" value="- LoadingPage()&#10;- ErrorPage(error: Error) &#10;- return(): String" style="text;strokeColor=none;fillColor=none;align=left;verticalAlign=top;spacingLeft=4;spacingRight=4;overflow=hidden;rotatable=0;points=[[0,0.5],[1,0.5]];portConstraint=eastwest;fontSize=16;fontColor=#F0F0F0;" parent="75" vertex="1">
                    <mxGeometry y="108" width="190" height="82" as="geometry"/>
                </mxCell>
                <mxCell id="79" value="DashboardFormUI" style="swimlane;fontStyle=1;align=center;verticalAlign=top;childLayout=stackLayout;horizontal=1;startSize=26;horizontalStack=0;resizeParent=1;resizeParentMax=0;resizeLast=0;collapsible=1;marginBottom=0;fontSize=16;" parent="1" vertex="1">
                    <mxGeometry x="2090" y="431" width="180" height="120" as="geometry"/>
                </mxCell>
                <mxCell id="80" value="- bill: Object&#10;- modal: String" style="text;strokeColor=none;fillColor=none;align=left;verticalAlign=top;spacingLeft=4;spacingRight=4;overflow=hidden;rotatable=0;points=[[0,0.5],[1,0.5]];portConstraint=eastwest;fontSize=16;" parent="79" vertex="1">
                    <mxGeometry y="26" width="180" height="54" as="geometry"/>
                </mxCell>
                <mxCell id="81" value="" style="line;strokeWidth=1;fillColor=none;align=left;verticalAlign=middle;spacingTop=-1;spacingLeft=3;spacingRight=3;rotatable=0;labelPosition=right;points=[];portConstraint=eastwest;" parent="79" vertex="1">
                    <mxGeometry y="80" width="180" height="8" as="geometry"/>
                </mxCell>
                <mxCell id="82" value="- return(): String" style="text;strokeColor=none;fillColor=none;align=left;verticalAlign=top;spacingLeft=4;spacingRight=4;overflow=hidden;rotatable=0;points=[[0,0.5],[1,0.5]];portConstraint=eastwest;fontSize=16;fontColor=#F0F0F0;" parent="79" vertex="1">
                    <mxGeometry y="88" width="180" height="32" as="geometry"/>
                </mxCell>
                <mxCell id="83" value="Actions" style="swimlane;fontStyle=1;align=center;verticalAlign=top;childLayout=stackLayout;horizontal=1;startSize=26;horizontalStack=0;resizeParent=1;resizeParentMax=0;resizeLast=0;collapsible=1;marginBottom=0;fontSize=16;" parent="1" vertex="1">
                    <mxGeometry x="1120" y="780" width="190" height="120" as="geometry"/>
                </mxCell>
                <mxCell id="84" value="- billUrl: String" style="text;strokeColor=none;fillColor=none;align=left;verticalAlign=top;spacingLeft=4;spacingRight=4;overflow=hidden;rotatable=0;points=[[0,0.5],[1,0.5]];portConstraint=eastwest;fontSize=16;" parent="83" vertex="1">
                    <mxGeometry y="26" width="190" height="34" as="geometry"/>
                </mxCell>
                <mxCell id="85" value="" style="line;strokeWidth=1;fillColor=none;align=left;verticalAlign=middle;spacingTop=-1;spacingLeft=3;spacingRight=3;rotatable=0;labelPosition=right;points=[];portConstraint=eastwest;" parent="83" vertex="1">
                    <mxGeometry y="60" width="190" height="8" as="geometry"/>
                </mxCell>
                <mxCell id="86" value="- return(): String" style="text;strokeColor=none;fillColor=none;align=left;verticalAlign=top;spacingLeft=4;spacingRight=4;overflow=hidden;rotatable=0;points=[[0,0.5],[1,0.5]];portConstraint=eastwest;fontSize=16;fontColor=#F0F0F0;" parent="83" vertex="1">
                    <mxGeometry y="68" width="190" height="52" as="geometry"/>
                </mxCell>
                <mxCell id="87" value="ErrorPage" style="swimlane;fontStyle=1;align=center;verticalAlign=top;childLayout=stackLayout;horizontal=1;startSize=26;horizontalStack=0;resizeParent=1;resizeParentMax=0;resizeLast=0;collapsible=1;marginBottom=0;fontSize=16;" parent="1" vertex="1">
                    <mxGeometry x="1330" y="780" width="190" height="120" as="geometry"/>
                </mxCell>
                <mxCell id="88" value="- error: Error" style="text;strokeColor=none;fillColor=none;align=left;verticalAlign=top;spacingLeft=4;spacingRight=4;overflow=hidden;rotatable=0;points=[[0,0.5],[1,0.5]];portConstraint=eastwest;fontSize=16;" parent="87" vertex="1">
                    <mxGeometry y="26" width="190" height="34" as="geometry"/>
                </mxCell>
                <mxCell id="89" value="" style="line;strokeWidth=1;fillColor=none;align=left;verticalAlign=middle;spacingTop=-1;spacingLeft=3;spacingRight=3;rotatable=0;labelPosition=right;points=[];portConstraint=eastwest;" parent="87" vertex="1">
                    <mxGeometry y="60" width="190" height="8" as="geometry"/>
                </mxCell>
                <mxCell id="90" value="- return(): String" style="text;strokeColor=none;fillColor=none;align=left;verticalAlign=top;spacingLeft=4;spacingRight=4;overflow=hidden;rotatable=0;points=[[0,0.5],[1,0.5]];portConstraint=eastwest;fontSize=16;fontColor=#F0F0F0;" parent="87" vertex="1">
                    <mxGeometry y="68" width="190" height="52" as="geometry"/>
                </mxCell>
                <mxCell id="91" value="LoadingPage" style="swimlane;fontStyle=1;align=center;verticalAlign=top;childLayout=stackLayout;horizontal=1;startSize=26;horizontalStack=0;resizeParent=1;resizeParentMax=0;resizeLast=0;collapsible=1;marginBottom=0;fontSize=16;" parent="1" vertex="1">
                    <mxGeometry x="1540" y="780" width="190" height="120" as="geometry"/>
                </mxCell>
                <mxCell id="92" value=" " style="text;strokeColor=none;fillColor=none;align=left;verticalAlign=top;spacingLeft=4;spacingRight=4;overflow=hidden;rotatable=0;points=[[0,0.5],[1,0.5]];portConstraint=eastwest;fontSize=16;" parent="91" vertex="1">
                    <mxGeometry y="26" width="190" height="34" as="geometry"/>
                </mxCell>
                <mxCell id="93" value="" style="line;strokeWidth=1;fillColor=none;align=left;verticalAlign=middle;spacingTop=-1;spacingLeft=3;spacingRight=3;rotatable=0;labelPosition=right;points=[];portConstraint=eastwest;" parent="91" vertex="1">
                    <mxGeometry y="60" width="190" height="8" as="geometry"/>
                </mxCell>
                <mxCell id="94" value="- return(): String" style="text;strokeColor=none;fillColor=none;align=left;verticalAlign=top;spacingLeft=4;spacingRight=4;overflow=hidden;rotatable=0;points=[[0,0.5],[1,0.5]];portConstraint=eastwest;fontSize=16;fontColor=#F0F0F0;" parent="91" vertex="1">
                    <mxGeometry y="68" width="190" height="52" as="geometry"/>
                </mxCell>
                <mxCell id="95" value="VerticalLayout" style="swimlane;fontStyle=1;align=center;verticalAlign=top;childLayout=stackLayout;horizontal=1;startSize=26;horizontalStack=0;resizeParent=1;resizeParentMax=0;resizeLast=0;collapsible=1;marginBottom=0;fontSize=16;" parent="1" vertex="1">
                    <mxGeometry x="910" y="780" width="190" height="120" as="geometry"/>
                </mxCell>
                <mxCell id="96" value="- height: Number" style="text;strokeColor=none;fillColor=none;align=left;verticalAlign=top;spacingLeft=4;spacingRight=4;overflow=hidden;rotatable=0;points=[[0,0.5],[1,0.5]];portConstraint=eastwest;fontSize=16;" parent="95" vertex="1">
                    <mxGeometry y="26" width="190" height="34" as="geometry"/>
                </mxCell>
                <mxCell id="97" value="" style="line;strokeWidth=1;fillColor=none;align=left;verticalAlign=middle;spacingTop=-1;spacingLeft=3;spacingRight=3;rotatable=0;labelPosition=right;points=[];portConstraint=eastwest;" parent="95" vertex="1">
                    <mxGeometry y="60" width="190" height="8" as="geometry"/>
                </mxCell>
                <mxCell id="98" value="- return(): String" style="text;strokeColor=none;fillColor=none;align=left;verticalAlign=top;spacingLeft=4;spacingRight=4;overflow=hidden;rotatable=0;points=[[0,0.5],[1,0.5]];portConstraint=eastwest;fontSize=16;fontColor=#F0F0F0;" parent="95" vertex="1">
                    <mxGeometry y="68" width="190" height="52" as="geometry"/>
                </mxCell>
                <mxCell id="99" value="Logout" style="swimlane;fontStyle=1;align=center;verticalAlign=top;childLayout=stackLayout;horizontal=1;startSize=26;horizontalStack=0;resizeParent=1;resizeParentMax=0;resizeLast=0;collapsible=1;marginBottom=0;fontSize=16;" parent="1" vertex="1">
                    <mxGeometry x="2310" y="431" width="300" height="260" as="geometry"/>
                </mxCell>
                <mxCell id="100" value="- document: htmlElement&#10;- localStorage: String&#10;" style="text;strokeColor=none;fillColor=none;align=left;verticalAlign=top;spacingLeft=4;spacingRight=4;overflow=hidden;rotatable=0;points=[[0,0.5],[1,0.5]];portConstraint=eastwest;fontSize=16;" parent="99" vertex="1">
                    <mxGeometry y="26" width="300" height="104" as="geometry"/>
                </mxCell>
                <mxCell id="101" value="" style="line;strokeWidth=1;fillColor=none;align=left;verticalAlign=middle;spacingTop=-1;spacingLeft=3;spacingRight=3;rotatable=0;labelPosition=right;points=[];portConstraint=eastwest;" parent="99" vertex="1">
                    <mxGeometry y="130" width="300" height="8" as="geometry"/>
                </mxCell>
                <mxCell id="102" value="- handleClick()&#10;- onNavigate(pathname: String)" style="text;strokeColor=none;fillColor=none;align=left;verticalAlign=top;spacingLeft=4;spacingRight=4;overflow=hidden;rotatable=0;points=[[0,0.5],[1,0.5]];portConstraint=eastwest;fontSize=16;fontColor=#F0F0F0;" parent="99" vertex="1">
                    <mxGeometry y="138" width="300" height="122" as="geometry"/>
                </mxCell>
                <mxCell id="103" value="localStorage" style="swimlane;fontStyle=1;align=center;verticalAlign=top;childLayout=stackLayout;horizontal=1;startSize=26;horizontalStack=0;resizeParent=1;resizeParentMax=0;resizeLast=0;collapsible=1;marginBottom=0;fontSize=16;" parent="1" vertex="1">
                    <mxGeometry x="120" y="780" width="260" height="160" as="geometry"/>
                </mxCell>
                <mxCell id="104" value="- store: Object" style="text;strokeColor=none;fillColor=none;align=left;verticalAlign=top;spacingLeft=4;spacingRight=4;overflow=hidden;rotatable=0;points=[[0,0.5],[1,0.5]];portConstraint=eastwest;fontSize=16;" parent="103" vertex="1">
                    <mxGeometry y="26" width="260" height="34" as="geometry"/>
                </mxCell>
                <mxCell id="105" value="" style="line;strokeWidth=1;fillColor=none;align=left;verticalAlign=middle;spacingTop=-1;spacingLeft=3;spacingRight=3;rotatable=0;labelPosition=right;points=[];portConstraint=eastwest;" parent="103" vertex="1">
                    <mxGeometry y="60" width="260" height="8" as="geometry"/>
                </mxCell>
                <mxCell id="106" value="- getItem(key: String): String&#10;- setItem(key: String, value: String)&#10;- clear()&#10;- deleteItem(key: String)" style="text;strokeColor=none;fillColor=none;align=left;verticalAlign=top;spacingLeft=4;spacingRight=4;overflow=hidden;rotatable=0;points=[[0,0.5],[1,0.5]];portConstraint=eastwest;fontSize=16;fontColor=#F0F0F0;" parent="103" vertex="1">
                    <mxGeometry y="68" width="260" height="92" as="geometry"/>
                </mxCell>
                <mxCell id="107" value="format" style="swimlane;fontStyle=1;align=center;verticalAlign=top;childLayout=stackLayout;horizontal=1;startSize=26;horizontalStack=0;resizeParent=1;resizeParentMax=0;resizeLast=0;collapsible=1;marginBottom=0;fontSize=16;" parent="1" vertex="1">
                    <mxGeometry x="400" y="780" width="360" height="160" as="geometry"/>
                </mxCell>
                <mxCell id="108" value="- frenchMonths: Array" style="text;strokeColor=none;fillColor=none;align=left;verticalAlign=top;spacingLeft=4;spacingRight=4;overflow=hidden;rotatable=0;points=[[0,0.5],[1,0.5]];portConstraint=eastwest;fontSize=16;" parent="107" vertex="1">
                    <mxGeometry y="26" width="360" height="34" as="geometry"/>
                </mxCell>
                <mxCell id="109" value="" style="line;strokeWidth=1;fillColor=none;align=left;verticalAlign=middle;spacingTop=-1;spacingLeft=3;spacingRight=3;rotatable=0;labelPosition=right;points=[];portConstraint=eastwest;" parent="107" vertex="1">
                    <mxGeometry y="60" width="360" height="8" as="geometry"/>
                </mxCell>
                <mxCell id="110" value="- formatDate(datstr: String): String&#10;- formatStatus(status: String): String&#10;- formatDateReverse(formatedDate: String): Date" style="text;strokeColor=none;fillColor=none;align=left;verticalAlign=top;spacingLeft=4;spacingRight=4;overflow=hidden;rotatable=0;points=[[0,0.5],[1,0.5]];portConstraint=eastwest;fontSize=16;fontColor=#F0F0F0;" parent="107" vertex="1">
                    <mxGeometry y="68" width="360" height="92" as="geometry"/>
                </mxCell>
                <mxCell id="111" value="store" style="swimlane;fontStyle=1;align=center;verticalAlign=top;childLayout=stackLayout;horizontal=1;startSize=26;horizontalStack=0;resizeParent=1;resizeParentMax=0;resizeLast=0;collapsible=1;marginBottom=0;fontSize=16;" parent="1" vertex="1">
                    <mxGeometry x="130" y="1190" width="360" height="180" as="geometry"/>
                </mxCell>
                <mxCell id="112" value="- collection: Collection [*]" style="text;strokeColor=none;fillColor=none;align=left;verticalAlign=top;spacingLeft=4;spacingRight=4;overflow=hidden;rotatable=0;points=[[0,0.5],[1,0.5]];portConstraint=eastwest;fontSize=16;" parent="111" vertex="1">
                    <mxGeometry y="26" width="360" height="34" as="geometry"/>
                </mxCell>
                <mxCell id="113" value="" style="line;strokeWidth=1;fillColor=none;align=left;verticalAlign=middle;spacingTop=-1;spacingLeft=3;spacingRight=3;rotatable=0;labelPosition=right;points=[];portConstraint=eastwest;" parent="111" vertex="1">
                    <mxGeometry y="60" width="360" height="8" as="geometry"/>
                </mxCell>
                <mxCell id="114" value="- users(): Collection&#10;- user(uid: String): Document&#10;- ref(path: String)&#10;- bills(): Collection&#10;- bill(bid: String): Document" style="text;strokeColor=none;fillColor=none;align=left;verticalAlign=top;spacingLeft=4;spacingRight=4;overflow=hidden;rotatable=0;points=[[0,0.5],[1,0.5]];portConstraint=eastwest;fontSize=16;fontColor=#F0F0F0;" parent="111" vertex="1">
                    <mxGeometry y="68" width="360" height="112" as="geometry"/>
                </mxCell>
                <mxCell id="115" value="window.firebase" style="swimlane;fontStyle=5;align=center;verticalAlign=top;childLayout=stackLayout;horizontal=1;startSize=26;horizontalStack=0;resizeParent=1;resizeParentMax=0;resizeLast=0;collapsible=1;marginBottom=0;fontSize=16;" parent="1" vertex="1">
                    <mxGeometry x="-570" y="1325" width="290" height="160" as="geometry"/>
                </mxCell>
                <mxCell id="116" value=" " style="text;strokeColor=none;fillColor=none;align=left;verticalAlign=top;spacingLeft=4;spacingRight=4;overflow=hidden;rotatable=0;points=[[0,0.5],[1,0.5]];portConstraint=eastwest;fontSize=16;" parent="115" vertex="1">
                    <mxGeometry y="26" width="290" height="34" as="geometry"/>
                </mxCell>
                <mxCell id="117" value="" style="line;strokeWidth=1;fillColor=none;align=left;verticalAlign=middle;spacingTop=-1;spacingLeft=3;spacingRight=3;rotatable=0;labelPosition=right;points=[];portConstraint=eastwest;" parent="115" vertex="1">
                    <mxGeometry y="60" width="290" height="8" as="geometry"/>
                </mxCell>
                <mxCell id="118" value="- initializeApp(firebaseConfig: Object)&#10;- firestore()&#10;- storage()" style="text;strokeColor=none;fillColor=none;align=left;verticalAlign=top;spacingLeft=4;spacingRight=4;overflow=hidden;rotatable=0;points=[[0,0.5],[1,0.5]];portConstraint=eastwest;fontSize=16;fontColor=#F0F0F0;" parent="115" vertex="1">
                    <mxGeometry y="68" width="290" height="92" as="geometry"/>
                </mxCell>
                <mxCell id="119" value="Collection" style="swimlane;fontStyle=1;align=center;verticalAlign=top;childLayout=stackLayout;horizontal=1;startSize=26;horizontalStack=0;resizeParent=1;resizeParentMax=0;resizeLast=0;collapsible=1;marginBottom=0;fontSize=16;" parent="1" vertex="1">
                    <mxGeometry x="570" y="1070" width="220" height="140" as="geometry"/>
                </mxCell>
                <mxCell id="120" value="- document: Document [*]" style="text;strokeColor=none;fillColor=none;align=left;verticalAlign=top;spacingLeft=4;spacingRight=4;overflow=hidden;rotatable=0;points=[[0,0.5],[1,0.5]];portConstraint=eastwest;fontSize=16;" parent="119" vertex="1">
                    <mxGeometry y="26" width="220" height="34" as="geometry"/>
                </mxCell>
                <mxCell id="121" value="" style="line;strokeWidth=1;fillColor=none;align=left;verticalAlign=middle;spacingTop=-1;spacingLeft=3;spacingRight=3;rotatable=0;labelPosition=right;points=[];portConstraint=eastwest;" parent="119" vertex="1">
                    <mxGeometry y="60" width="220" height="8" as="geometry"/>
                </mxCell>
                <mxCell id="122" value="- doc(key: String): Document&#10;- add(object: Document)&#10;- get(): Array" style="text;strokeColor=none;fillColor=none;align=left;verticalAlign=top;spacingLeft=4;spacingRight=4;overflow=hidden;rotatable=0;points=[[0,0.5],[1,0.5]];portConstraint=eastwest;fontSize=16;fontColor=#F0F0F0;" parent="119" vertex="1">
                    <mxGeometry y="68" width="220" height="72" as="geometry"/>
                </mxCell>
                <mxCell id="123" value="Document" style="swimlane;fontStyle=1;align=center;verticalAlign=top;childLayout=stackLayout;horizontal=1;startSize=26;horizontalStack=0;resizeParent=1;resizeParentMax=0;resizeLast=0;collapsible=1;marginBottom=0;fontSize=16;" parent="1" vertex="1">
                    <mxGeometry x="780" y="1244" width="150" height="140" as="geometry"/>
                </mxCell>
                <mxCell id="124" value="- data: any [*]" style="text;strokeColor=none;fillColor=none;align=left;verticalAlign=top;spacingLeft=4;spacingRight=4;overflow=hidden;rotatable=0;points=[[0,0.5],[1,0.5]];portConstraint=eastwest;fontSize=16;" parent="123" vertex="1">
                    <mxGeometry y="26" width="150" height="34" as="geometry"/>
                </mxCell>
                <mxCell id="125" value="" style="line;strokeWidth=1;fillColor=none;align=left;verticalAlign=middle;spacingTop=-1;spacingLeft=3;spacingRight=3;rotatable=0;labelPosition=right;points=[];portConstraint=eastwest;" parent="123" vertex="1">
                    <mxGeometry y="60" width="150" height="8" as="geometry"/>
                </mxCell>
                <mxCell id="126" value="- get(): data [*]&#10;- set(data: any)&#10;- update(data: any)" style="text;strokeColor=none;fillColor=none;align=left;verticalAlign=top;spacingLeft=4;spacingRight=4;overflow=hidden;rotatable=0;points=[[0,0.5],[1,0.5]];portConstraint=eastwest;fontSize=16;fontColor=#F0F0F0;" parent="123" vertex="1">
                    <mxGeometry y="68" width="150" height="72" as="geometry"/>
                </mxCell>
                <mxCell id="127" value="storage" style="swimlane;fontStyle=1;align=center;verticalAlign=top;childLayout=stackLayout;horizontal=1;startSize=26;horizontalStack=0;resizeParent=1;resizeParentMax=0;resizeLast=0;collapsible=1;marginBottom=0;fontSize=16;" parent="1" vertex="1">
                    <mxGeometry x="130" y="1420" width="250" height="130" as="geometry"/>
                </mxCell>
                <mxCell id="128" value="reference: Reference [*]" style="text;strokeColor=none;fillColor=none;align=left;verticalAlign=top;spacingLeft=4;spacingRight=4;overflow=hidden;rotatable=0;points=[[0,0.5],[1,0.5]];portConstraint=eastwest;fontSize=16;" parent="127" vertex="1">
                    <mxGeometry y="26" width="250" height="34" as="geometry"/>
                </mxCell>
                <mxCell id="129" value="" style="line;strokeWidth=1;fillColor=none;align=left;verticalAlign=middle;spacingTop=-1;spacingLeft=3;spacingRight=3;rotatable=0;labelPosition=right;points=[];portConstraint=eastwest;" parent="127" vertex="1">
                    <mxGeometry y="60" width="250" height="8" as="geometry"/>
                </mxCell>
                <mxCell id="130" value="- ref([path: String]): Reference " style="text;strokeColor=none;fillColor=none;align=left;verticalAlign=top;spacingLeft=4;spacingRight=4;overflow=hidden;rotatable=0;points=[[0,0.5],[1,0.5]];portConstraint=eastwest;fontSize=16;fontColor=#F0F0F0;" parent="127" vertex="1">
                    <mxGeometry y="68" width="250" height="62" as="geometry"/>
                </mxCell>
                <mxCell id="131" value="Reference" style="swimlane;fontStyle=1;align=center;verticalAlign=top;childLayout=stackLayout;horizontal=1;startSize=26;horizontalStack=0;resizeParent=1;resizeParentMax=0;resizeLast=0;collapsible=1;marginBottom=0;fontSize=16;" parent="1" vertex="1">
                    <mxGeometry x="440" y="1420" width="270" height="230" as="geometry"/>
                </mxCell>
                <mxCell id="132" value="- downloadURL: String&#10;- file: File" style="text;strokeColor=none;fillColor=none;align=left;verticalAlign=top;spacingLeft=4;spacingRight=4;overflow=hidden;rotatable=0;points=[[0,0.5],[1,0.5]];portConstraint=eastwest;fontSize=16;" parent="131" vertex="1">
                    <mxGeometry y="26" width="270" height="64" as="geometry"/>
                </mxCell>
                <mxCell id="133" value="" style="line;strokeWidth=1;fillColor=none;align=left;verticalAlign=middle;spacingTop=-1;spacingLeft=3;spacingRight=3;rotatable=0;labelPosition=right;points=[];portConstraint=eastwest;" parent="131" vertex="1">
                    <mxGeometry y="90" width="270" height="8" as="geometry"/>
                </mxCell>
                <mxCell id="134" value="- child(deepLevel: String): Reference&#10;- fullpath(): String&#10;- name(): String&#10;- parent(): Reference&#10;- put(file: File): this&#10;- getDownloadURL(): String" style="text;strokeColor=none;fillColor=none;align=left;verticalAlign=top;spacingLeft=4;spacingRight=4;overflow=hidden;rotatable=0;points=[[0,0.5],[1,0.5]];portConstraint=eastwest;fontSize=16;fontColor=#F0F0F0;" parent="131" vertex="1">
                    <mxGeometry y="98" width="270" height="132" as="geometry"/>
                </mxCell>
                <mxCell id="135" value="Firestore" style="swimlane;fontStyle=1;align=center;verticalAlign=top;childLayout=stackLayout;horizontal=1;startSize=26;horizontalStack=0;resizeParent=1;resizeParentMax=0;resizeLast=0;collapsible=1;marginBottom=0;fontSize=16;" parent="1" vertex="1">
                    <mxGeometry x="-215" y="1350" width="290" height="110" as="geometry"/>
                </mxCell>
                <mxCell id="136" value="- store: window.firebase.firestore()&#10;- storage: window.firebase.storage()" style="text;strokeColor=none;fillColor=none;align=left;verticalAlign=top;spacingLeft=4;spacingRight=4;overflow=hidden;rotatable=0;points=[[0,0.5],[1,0.5]];portConstraint=eastwest;fontSize=16;" parent="135" vertex="1">
                    <mxGeometry y="26" width="290" height="54" as="geometry"/>
                </mxCell>
                <mxCell id="137" value="" style="line;strokeWidth=1;fillColor=none;align=left;verticalAlign=middle;spacingTop=-1;spacingLeft=3;spacingRight=3;rotatable=0;labelPosition=right;points=[];portConstraint=eastwest;" parent="135" vertex="1">
                    <mxGeometry y="80" width="290" height="8" as="geometry"/>
                </mxCell>
                <mxCell id="138" value=" " style="text;strokeColor=none;fillColor=none;align=left;verticalAlign=top;spacingLeft=4;spacingRight=4;overflow=hidden;rotatable=0;points=[[0,0.5],[1,0.5]];portConstraint=eastwest;fontSize=16;fontColor=#F0F0F0;" parent="135" vertex="1">
                    <mxGeometry y="88" width="290" height="22" as="geometry"/>
                </mxCell>
                <mxCell id="160" value="" style="endArrow=none;html=1;rounded=0;align=center;verticalAlign=top;endFill=0;labelBackgroundColor=none;" parent="1" source="119" target="123" edge="1">
                    <mxGeometry x="0.1243" y="25" relative="1" as="geometry">
                        <mxPoint x="610" y="1250" as="sourcePoint"/>
                        <mxPoint x="770" y="1250" as="targetPoint"/>
                        <Array as="points">
                            <mxPoint x="855" y="1140"/>
                        </Array>
                        <mxPoint as="offset"/>
                    </mxGeometry>
                </mxCell>
                <mxCell id="161" value="1" style="resizable=0;html=1;align=left;verticalAlign=bottom;labelBackgroundColor=none;" parent="160" connectable="0" vertex="1">
                    <mxGeometry x="-1" relative="1" as="geometry"/>
                </mxCell>
                <mxCell id="162" value="*" style="resizable=0;html=1;align=right;verticalAlign=bottom;labelBackgroundColor=none;" parent="160" connectable="0" vertex="1">
                    <mxGeometry x="1" relative="1" as="geometry">
                        <mxPoint x="8" y="1.8599999999999994" as="offset"/>
                    </mxGeometry>
                </mxCell>
                <mxCell id="163" value="" style="endArrow=none;html=1;rounded=0;align=center;verticalAlign=top;endFill=0;labelBackgroundColor=none;" parent="1" source="111" target="123" edge="1">
                    <mxGeometry x="0.1243" y="25" relative="1" as="geometry">
                        <mxPoint x="605" y="1280" as="sourcePoint"/>
                        <mxPoint x="670" y="1384" as="targetPoint"/>
                        <Array as="points">
                            <mxPoint x="640" y="1280"/>
                            <mxPoint x="640" y="1313"/>
                        </Array>
                        <mxPoint as="offset"/>
                    </mxGeometry>
                </mxCell>
                <mxCell id="164" value="1" style="resizable=0;html=1;align=left;verticalAlign=bottom;labelBackgroundColor=none;" parent="163" connectable="0" vertex="1">
                    <mxGeometry x="-1" relative="1" as="geometry"/>
                </mxCell>
                <mxCell id="165" value="*" style="resizable=0;html=1;align=right;verticalAlign=bottom;labelBackgroundColor=none;" parent="163" connectable="0" vertex="1">
                    <mxGeometry x="1" relative="1" as="geometry">
                        <mxPoint x="-3" y="1.8599999999999994" as="offset"/>
                    </mxGeometry>
                </mxCell>
                <mxCell id="166" value="" style="endArrow=none;html=1;rounded=0;align=center;verticalAlign=top;endFill=0;labelBackgroundColor=none;exitX=1;exitY=0.5;exitDx=0;exitDy=0;" parent="1" source="112" target="119" edge="1">
                    <mxGeometry x="0.1243" y="25" relative="1" as="geometry">
                        <mxPoint x="500" y="1290" as="sourcePoint"/>
                        <mxPoint x="790" y="1323.6511627906978" as="targetPoint"/>
                        <Array as="points">
                            <mxPoint x="520" y="1233"/>
                            <mxPoint x="520" y="1140"/>
                        </Array>
                        <mxPoint as="offset"/>
                    </mxGeometry>
                </mxCell>
                <mxCell id="167" value="1" style="resizable=0;html=1;align=left;verticalAlign=bottom;labelBackgroundColor=none;" parent="166" connectable="0" vertex="1">
                    <mxGeometry x="-1" relative="1" as="geometry"/>
                </mxCell>
                <mxCell id="168" value="*" style="resizable=0;html=1;align=right;verticalAlign=bottom;labelBackgroundColor=none;" parent="166" connectable="0" vertex="1">
                    <mxGeometry x="1" relative="1" as="geometry">
                        <mxPoint x="-3" y="1.8599999999999994" as="offset"/>
                    </mxGeometry>
                </mxCell>
                <mxCell id="169" value="" style="endArrow=none;html=1;rounded=0;align=center;verticalAlign=top;endFill=0;labelBackgroundColor=none;exitX=1;exitY=0.5;exitDx=0;exitDy=0;" parent="1" source="128" target="131" edge="1">
                    <mxGeometry x="0.1243" y="25" relative="1" as="geometry">
                        <mxPoint x="500" y="1290" as="sourcePoint"/>
                        <mxPoint x="790" y="1323.6511627906975" as="targetPoint"/>
                        <Array as="points">
                            <mxPoint x="410" y="1463"/>
                            <mxPoint x="410" y="1535"/>
                        </Array>
                        <mxPoint as="offset"/>
                    </mxGeometry>
                </mxCell>
                <mxCell id="170" value="1" style="resizable=0;html=1;align=left;verticalAlign=bottom;labelBackgroundColor=none;" parent="169" connectable="0" vertex="1">
                    <mxGeometry x="-1" relative="1" as="geometry"/>
                </mxCell>
                <mxCell id="171" value="*" style="resizable=0;html=1;align=right;verticalAlign=bottom;labelBackgroundColor=none;" parent="169" connectable="0" vertex="1">
                    <mxGeometry x="1" relative="1" as="geometry">
                        <mxPoint x="-4" y="1.8599999999999994" as="offset"/>
                    </mxGeometry>
                </mxCell>
                <mxCell id="172" value="" style="endArrow=none;html=1;rounded=0;align=center;verticalAlign=top;endFill=0;labelBackgroundColor=none;" parent="1" source="135" target="111" edge="1">
                    <mxGeometry x="0.1243" y="25" relative="1" as="geometry">
                        <mxPoint x="60" y="1210" as="sourcePoint"/>
                        <mxPoint x="120" y="1282" as="targetPoint"/>
                        <Array as="points">
                            <mxPoint x="100" y="1400"/>
                            <mxPoint x="100" y="1280"/>
                        </Array>
                        <mxPoint as="offset"/>
                    </mxGeometry>
                </mxCell>
                <mxCell id="173" value="1" style="resizable=0;html=1;align=left;verticalAlign=bottom;labelBackgroundColor=none;" parent="172" connectable="0" vertex="1">
                    <mxGeometry x="-1" relative="1" as="geometry"/>
                </mxCell>
                <mxCell id="174" value="1" style="resizable=0;html=1;align=right;verticalAlign=bottom;labelBackgroundColor=none;" parent="172" connectable="0" vertex="1">
                    <mxGeometry x="1" relative="1" as="geometry">
                        <mxPoint x="-4" y="1.8599999999999994" as="offset"/>
                    </mxGeometry>
                </mxCell>
                <mxCell id="175" value="" style="endArrow=none;html=1;rounded=0;align=center;verticalAlign=top;endFill=0;labelBackgroundColor=none;exitX=1;exitY=1;exitDx=0;exitDy=0;exitPerimeter=0;entryX=0;entryY=0.07;entryDx=0;entryDy=0;entryPerimeter=0;" parent="1" source="136" target="130" edge="1">
                    <mxGeometry x="0.1243" y="25" relative="1" as="geometry">
                        <mxPoint x="85" y="1410.7352941176473" as="sourcePoint"/>
                        <mxPoint x="140" y="1290" as="targetPoint"/>
                        <Array as="points">
                            <mxPoint x="110" y="1430"/>
                            <mxPoint x="110" y="1492"/>
                        </Array>
                        <mxPoint as="offset"/>
                    </mxGeometry>
                </mxCell>
                <mxCell id="176" value="1" style="resizable=0;html=1;align=left;verticalAlign=bottom;labelBackgroundColor=none;" parent="175" connectable="0" vertex="1">
                    <mxGeometry x="-1" relative="1" as="geometry"/>
                </mxCell>
                <mxCell id="177" value="1" style="resizable=0;html=1;align=right;verticalAlign=bottom;labelBackgroundColor=none;" parent="175" connectable="0" vertex="1">
                    <mxGeometry x="1" relative="1" as="geometry">
                        <mxPoint x="-4" y="1.8599999999999994" as="offset"/>
                    </mxGeometry>
                </mxCell>
                <mxCell id="178" value="" style="endArrow=none;html=1;rounded=0;align=center;verticalAlign=top;endFill=0;labelBackgroundColor=none;" parent="1" source="115" target="135" edge="1">
                    <mxGeometry x="0.1243" y="25" relative="1" as="geometry">
                        <mxPoint x="85" y="1440" as="sourcePoint"/>
                        <mxPoint x="140" y="1502.3399999999997" as="targetPoint"/>
                        <Array as="points"/>
                        <mxPoint as="offset"/>
                    </mxGeometry>
                </mxCell>
                <mxCell id="179" value="1" style="resizable=0;html=1;align=left;verticalAlign=bottom;labelBackgroundColor=none;" parent="178" connectable="0" vertex="1">
                    <mxGeometry x="-1" relative="1" as="geometry"/>
                </mxCell>
                <mxCell id="180" value="1" style="resizable=0;html=1;align=right;verticalAlign=bottom;labelBackgroundColor=none;" parent="178" connectable="0" vertex="1">
                    <mxGeometry x="1" relative="1" as="geometry">
                        <mxPoint x="-2" y="0.8599999999999994" as="offset"/>
                    </mxGeometry>
                </mxCell>
            </root>
        </mxGraphModel>
    </diagram>
    <diagram name="Routing" id="_XqjzkduJj8aA4cPdA2T">
        <mxGraphModel dx="3246" dy="1496" grid="1" gridSize="10" guides="1" tooltips="1" connect="1" arrows="1" fold="1" page="0" pageScale="1" pageWidth="827" pageHeight="1169" math="0" shadow="0">
            <root>
                <mxCell id="Iuyj9420e749OwdUtZ9R-0"/>
                <mxCell id="Iuyj9420e749OwdUtZ9R-1" parent="Iuyj9420e749OwdUtZ9R-0"/>
                <mxCell id="Iuyj9420e749OwdUtZ9R-2" value="Router" style="swimlane;fontStyle=1;align=center;verticalAlign=top;childLayout=stackLayout;horizontal=1;startSize=26;horizontalStack=0;resizeParent=1;resizeParentMax=0;resizeLast=0;collapsible=1;marginBottom=0;fontSize=16;" parent="Iuyj9420e749OwdUtZ9R-1" vertex="1">
                    <mxGeometry x="260" y="-250" width="440" height="140" as="geometry"/>
                </mxCell>
                <mxCell id="Iuyj9420e749OwdUtZ9R-3" value="+ pathname: String&#10;+ history : History&#10;+ rootDiv : HtmlElement" style="text;strokeColor=none;fillColor=none;align=left;verticalAlign=top;spacingLeft=4;spacingRight=4;overflow=hidden;rotatable=0;points=[[0,0.5],[1,0.5]];portConstraint=eastwest;fontSize=16;" parent="Iuyj9420e749OwdUtZ9R-2" vertex="1">
                    <mxGeometry y="26" width="440" height="74" as="geometry"/>
                </mxCell>
                <mxCell id="Iuyj9420e749OwdUtZ9R-4" value="" style="line;strokeWidth=1;fillColor=none;align=left;verticalAlign=middle;spacingTop=-1;spacingLeft=3;spacingRight=3;rotatable=0;labelPosition=right;points=[];portConstraint=eastwest;" parent="Iuyj9420e749OwdUtZ9R-2" vertex="1">
                    <mxGeometry y="100" width="440" height="8" as="geometry"/>
                </mxCell>
                <mxCell id="Iuyj9420e749OwdUtZ9R-5" value="+ onpopstate() " style="text;strokeColor=none;fillColor=none;align=left;verticalAlign=top;spacingLeft=4;spacingRight=4;overflow=hidden;rotatable=0;points=[[0,0.5],[1,0.5]];portConstraint=eastwest;fontSize=16;" parent="Iuyj9420e749OwdUtZ9R-2" vertex="1">
                    <mxGeometry y="108" width="440" height="32" as="geometry"/>
                </mxCell>
                <mxCell id="Iuyj9420e749OwdUtZ9R-6" value="OnNavigate" style="swimlane;fontStyle=1;align=center;verticalAlign=top;childLayout=stackLayout;horizontal=1;startSize=26;horizontalStack=0;resizeParent=1;resizeParentMax=0;resizeLast=0;collapsible=1;marginBottom=0;fontSize=16;" parent="Iuyj9420e749OwdUtZ9R-1" vertex="1">
                    <mxGeometry x="260" y="30" width="440" height="180" as="geometry"/>
                </mxCell>
                <mxCell id="Iuyj9420e749OwdUtZ9R-7" value="- divIcon1 : HtmlElement&#10;- divIcon2 : Htmlelement" style="text;strokeColor=none;fillColor=none;align=left;verticalAlign=top;spacingLeft=4;spacingRight=4;overflow=hidden;rotatable=0;points=[[0,0.5],[1,0.5]];portConstraint=eastwest;fontSize=16;" parent="Iuyj9420e749OwdUtZ9R-6" vertex="1">
                    <mxGeometry y="26" width="440" height="54" as="geometry"/>
                </mxCell>
                <mxCell id="Iuyj9420e749OwdUtZ9R-8" value="" style="line;strokeWidth=1;fillColor=none;align=left;verticalAlign=middle;spacingTop=-1;spacingLeft=3;spacingRight=3;rotatable=0;labelPosition=right;points=[];portConstraint=eastwest;" parent="Iuyj9420e749OwdUtZ9R-6" vertex="1">
                    <mxGeometry y="80" width="440" height="8" as="geometry"/>
                </mxCell>
                <mxCell id="Iuyj9420e749OwdUtZ9R-9" value="- history.pushState(state: Object, title: String, [url: String])&#10;- ROUTES(pathname: String) : String&#10;- catch(error: Error)" style="text;strokeColor=none;fillColor=none;align=left;verticalAlign=top;spacingLeft=4;spacingRight=4;overflow=hidden;rotatable=0;points=[[0,0.5],[1,0.5]];portConstraint=eastwest;fontSize=16;" parent="Iuyj9420e749OwdUtZ9R-6" vertex="1">
                    <mxGeometry y="88" width="440" height="92" as="geometry"/>
                </mxCell>
                <mxCell id="Iuyj9420e749OwdUtZ9R-10" value="Login" style="swimlane;fontStyle=1;align=center;verticalAlign=top;childLayout=stackLayout;horizontal=1;startSize=26;horizontalStack=0;resizeParent=1;resizeParentMax=0;resizeLast=0;collapsible=1;marginBottom=0;fontSize=16;" parent="Iuyj9420e749OwdUtZ9R-1" vertex="1">
                    <mxGeometry x="-310" y="-400" width="300" height="250" as="geometry"/>
                </mxCell>
                <mxCell id="Iuyj9420e749OwdUtZ9R-11" value="- document: htmlElement&#10;- localStorage: String&#10;- PREVIOUS_LOCATION: String&#10;- firestore: Firestore" style="text;strokeColor=none;fillColor=none;align=left;verticalAlign=top;spacingLeft=4;spacingRight=4;overflow=hidden;rotatable=0;points=[[0,0.5],[1,0.5]];portConstraint=eastwest;fontSize=16;" parent="Iuyj9420e749OwdUtZ9R-10" vertex="1">
                    <mxGeometry y="26" width="300" height="94" as="geometry"/>
                </mxCell>
                <mxCell id="Iuyj9420e749OwdUtZ9R-12" value="" style="line;strokeWidth=1;fillColor=none;align=left;verticalAlign=middle;spacingTop=-1;spacingLeft=3;spacingRight=3;rotatable=0;labelPosition=right;points=[];portConstraint=eastwest;" parent="Iuyj9420e749OwdUtZ9R-10" vertex="1">
                    <mxGeometry y="120" width="300" height="8" as="geometry"/>
                </mxCell>
                <mxCell id="Iuyj9420e749OwdUtZ9R-13" value="- handleSubmitEmployee(e: event)&#10;- handleSubmitAdmin(e: event)&#10;- checkIfUserExists(user: User): boolean&#10;- createUser(user: User)&#10;- onNavigate(pathname: String)" style="text;strokeColor=none;fillColor=none;align=left;verticalAlign=top;spacingLeft=4;spacingRight=4;overflow=hidden;rotatable=0;points=[[0,0.5],[1,0.5]];portConstraint=eastwest;fontSize=16;" parent="Iuyj9420e749OwdUtZ9R-10" vertex="1">
                    <mxGeometry y="128" width="300" height="122" as="geometry"/>
                </mxCell>
                <mxCell id="Iuyj9420e749OwdUtZ9R-14" value="User" style="swimlane;fontStyle=1;align=center;verticalAlign=top;childLayout=stackLayout;horizontal=1;startSize=26;horizontalStack=0;resizeParent=1;resizeParentMax=0;resizeLast=0;collapsible=1;marginBottom=0;fontSize=16;" parent="Iuyj9420e749OwdUtZ9R-1" vertex="1">
                    <mxGeometry x="-580" y="-400" width="160" height="144" as="geometry">
                        <mxRectangle x="480" y="100" width="70" height="26" as="alternateBounds"/>
                    </mxGeometry>
                </mxCell>
                <mxCell id="Iuyj9420e749OwdUtZ9R-15" value="- type: String&#10;- email : String&#10;- password: String&#10;- status: String" style="text;strokeColor=none;fillColor=none;align=left;verticalAlign=top;spacingLeft=4;spacingRight=4;overflow=hidden;rotatable=0;points=[[0,0.5],[1,0.5]];portConstraint=eastwest;fontSize=16;" parent="Iuyj9420e749OwdUtZ9R-14" vertex="1">
                    <mxGeometry y="26" width="160" height="84" as="geometry"/>
                </mxCell>
                <mxCell id="Iuyj9420e749OwdUtZ9R-16" value="" style="line;strokeWidth=1;fillColor=none;align=left;verticalAlign=middle;spacingTop=-1;spacingLeft=3;spacingRight=3;rotatable=0;labelPosition=right;points=[];portConstraint=eastwest;" parent="Iuyj9420e749OwdUtZ9R-14" vertex="1">
                    <mxGeometry y="110" width="160" height="8" as="geometry"/>
                </mxCell>
                <mxCell id="Iuyj9420e749OwdUtZ9R-17" value=" " style="text;strokeColor=none;fillColor=none;align=left;verticalAlign=top;spacingLeft=4;spacingRight=4;overflow=hidden;rotatable=0;points=[[0,0.5],[1,0.5]];portConstraint=eastwest;" parent="Iuyj9420e749OwdUtZ9R-14" vertex="1">
                    <mxGeometry y="118" width="160" height="26" as="geometry"/>
                </mxCell>
                <mxCell id="Iuyj9420e749OwdUtZ9R-22" value="Bills" style="swimlane;fontStyle=1;align=center;verticalAlign=top;childLayout=stackLayout;horizontal=1;startSize=26;horizontalStack=0;resizeParent=1;resizeParentMax=0;resizeLast=0;collapsible=1;marginBottom=0;fontSize=16;" parent="Iuyj9420e749OwdUtZ9R-1" vertex="1">
                    <mxGeometry x="-310" y="190" width="300" height="200" as="geometry"/>
                </mxCell>
                <mxCell id="Iuyj9420e749OwdUtZ9R-23" value="- document: htmlElement&#10;- localStorage: String&#10;- firestore: Firestore&#10;" style="text;strokeColor=none;fillColor=none;align=left;verticalAlign=top;spacingLeft=4;spacingRight=4;overflow=hidden;rotatable=0;points=[[0,0.5],[1,0.5]];portConstraint=eastwest;fontSize=16;" parent="Iuyj9420e749OwdUtZ9R-22" vertex="1">
                    <mxGeometry y="26" width="300" height="74" as="geometry"/>
                </mxCell>
                <mxCell id="Iuyj9420e749OwdUtZ9R-24" value="" style="line;strokeWidth=1;fillColor=none;align=left;verticalAlign=middle;spacingTop=-1;spacingLeft=3;spacingRight=3;rotatable=0;labelPosition=right;points=[];portConstraint=eastwest;" parent="Iuyj9420e749OwdUtZ9R-22" vertex="1">
                    <mxGeometry y="100" width="300" height="8" as="geometry"/>
                </mxCell>
                <mxCell id="Iuyj9420e749OwdUtZ9R-25" value="- handleClickNewbill()&#10;- handleclickIconEye(icon: HtmlElement)&#10;- getBills()&#10;- onNavigate(pathname: String)" style="text;strokeColor=none;fillColor=none;align=left;verticalAlign=top;spacingLeft=4;spacingRight=4;overflow=hidden;rotatable=0;points=[[0,0.5],[1,0.5]];portConstraint=eastwest;fontSize=16;" parent="Iuyj9420e749OwdUtZ9R-22" vertex="1">
                    <mxGeometry y="108" width="300" height="92" as="geometry"/>
                </mxCell>
                <mxCell id="Iuyj9420e749OwdUtZ9R-30" value="NewBill" style="swimlane;fontStyle=1;align=center;verticalAlign=top;childLayout=stackLayout;horizontal=1;startSize=26;horizontalStack=0;resizeParent=1;resizeParentMax=0;resizeLast=0;collapsible=1;marginBottom=0;fontSize=16;" parent="Iuyj9420e749OwdUtZ9R-1" vertex="1">
                    <mxGeometry x="-320" y="450" width="300" height="230" as="geometry"/>
                </mxCell>
                <mxCell id="Iuyj9420e749OwdUtZ9R-31" value="+ document: htmlElement&#10;- localStorage: String&#10;- firestore: Firestore&#10;- formNewBill: FormData&#10;- file : HtmlElement" style="text;strokeColor=none;fillColor=none;align=left;verticalAlign=top;spacingLeft=4;spacingRight=4;overflow=hidden;rotatable=0;points=[[0,0.5],[1,0.5]];portConstraint=eastwest;fontSize=16;" parent="Iuyj9420e749OwdUtZ9R-30" vertex="1">
                    <mxGeometry y="26" width="300" height="104" as="geometry"/>
                </mxCell>
                <mxCell id="Iuyj9420e749OwdUtZ9R-32" value="" style="line;strokeWidth=1;fillColor=none;align=left;verticalAlign=middle;spacingTop=-1;spacingLeft=3;spacingRight=3;rotatable=0;labelPosition=right;points=[];portConstraint=eastwest;" parent="Iuyj9420e749OwdUtZ9R-30" vertex="1">
                    <mxGeometry y="130" width="300" height="8" as="geometry"/>
                </mxCell>
                <mxCell id="Iuyj9420e749OwdUtZ9R-33" value="- handleChangeFile(e: event)&#10;- handleSubmit(e:event)&#10;- createBill(bill: Object)&#10;- onNavigate(pathname: String)" style="text;strokeColor=none;fillColor=none;align=left;verticalAlign=top;spacingLeft=4;spacingRight=4;overflow=hidden;rotatable=0;points=[[0,0.5],[1,0.5]];portConstraint=eastwest;fontSize=16;" parent="Iuyj9420e749OwdUtZ9R-30" vertex="1">
                    <mxGeometry y="138" width="300" height="92" as="geometry"/>
                </mxCell>
                <mxCell id="Iuyj9420e749OwdUtZ9R-38" value="Dashboard" style="swimlane;fontStyle=1;align=center;verticalAlign=top;childLayout=stackLayout;horizontal=1;startSize=26;horizontalStack=0;resizeParent=1;resizeParentMax=0;resizeLast=0;collapsible=1;marginBottom=0;fontSize=16;" parent="Iuyj9420e749OwdUtZ9R-1" vertex="1">
                    <mxGeometry x="-310" y="-110" width="300" height="210" as="geometry"/>
                </mxCell>
                <mxCell id="Iuyj9420e749OwdUtZ9R-39" value="- document: htmlElement&#10;- localStorage: String&#10;- firestore: Firestore&#10;- bills: Array" style="text;strokeColor=none;fillColor=none;align=left;verticalAlign=top;spacingLeft=4;spacingRight=4;overflow=hidden;rotatable=0;points=[[0,0.5],[1,0.5]];portConstraint=eastwest;fontSize=16;" parent="Iuyj9420e749OwdUtZ9R-38" vertex="1">
                    <mxGeometry y="26" width="300" height="104" as="geometry"/>
                </mxCell>
                <mxCell id="Iuyj9420e749OwdUtZ9R-40" value="" style="line;strokeWidth=1;fillColor=none;align=left;verticalAlign=middle;spacingTop=-1;spacingLeft=3;spacingRight=3;rotatable=0;labelPosition=right;points=[];portConstraint=eastwest;" parent="Iuyj9420e749OwdUtZ9R-38" vertex="1">
                    <mxGeometry y="130" width="300" height="8" as="geometry"/>
                </mxCell>
                <mxCell id="Iuyj9420e749OwdUtZ9R-41" value="- handleClickIconeye(icon=HtmlElement)&#10;- handleEditTicket(bill: Object, bills: Array)&#10;- onNavigate(pathname: String)" style="text;strokeColor=none;fillColor=none;align=left;verticalAlign=top;spacingLeft=4;spacingRight=4;overflow=hidden;rotatable=0;points=[[0,0.5],[1,0.5]];portConstraint=eastwest;fontSize=16;fontColor=#F0F0F0;" parent="Iuyj9420e749OwdUtZ9R-38" vertex="1">
                    <mxGeometry y="138" width="300" height="72" as="geometry"/>
                </mxCell>
                <mxCell id="Iuyj9420e749OwdUtZ9R-46" value="DashboardFormUI" style="swimlane;fontStyle=1;align=center;verticalAlign=top;childLayout=stackLayout;horizontal=1;startSize=26;horizontalStack=0;resizeParent=1;resizeParentMax=0;resizeLast=0;collapsible=1;marginBottom=0;fontSize=16;" parent="Iuyj9420e749OwdUtZ9R-1" vertex="1">
                    <mxGeometry x="-580" y="-110" width="160" height="120" as="geometry"/>
                </mxCell>
                <mxCell id="Iuyj9420e749OwdUtZ9R-47" value="- bill: Object&#10;- modal: String" style="text;strokeColor=none;fillColor=none;align=left;verticalAlign=top;spacingLeft=4;spacingRight=4;overflow=hidden;rotatable=0;points=[[0,0.5],[1,0.5]];portConstraint=eastwest;fontSize=16;" parent="Iuyj9420e749OwdUtZ9R-46" vertex="1">
                    <mxGeometry y="26" width="160" height="54" as="geometry"/>
                </mxCell>
                <mxCell id="Iuyj9420e749OwdUtZ9R-48" value="" style="line;strokeWidth=1;fillColor=none;align=left;verticalAlign=middle;spacingTop=-1;spacingLeft=3;spacingRight=3;rotatable=0;labelPosition=right;points=[];portConstraint=eastwest;" parent="Iuyj9420e749OwdUtZ9R-46" vertex="1">
                    <mxGeometry y="80" width="160" height="8" as="geometry"/>
                </mxCell>
                <mxCell id="Iuyj9420e749OwdUtZ9R-49" value="- return(): String" style="text;strokeColor=none;fillColor=none;align=left;verticalAlign=top;spacingLeft=4;spacingRight=4;overflow=hidden;rotatable=0;points=[[0,0.5],[1,0.5]];portConstraint=eastwest;fontSize=16;fontColor=#F0F0F0;" parent="Iuyj9420e749OwdUtZ9R-46" vertex="1">
                    <mxGeometry y="88" width="160" height="32" as="geometry"/>
                </mxCell>
                <mxCell id="Iuyj9420e749OwdUtZ9R-53" value="◄&amp;nbsp;create" style="endArrow=none;html=1;rounded=0;align=center;verticalAlign=top;endFill=0;labelBackgroundColor=none;fontSize=14;exitX=0;exitY=0.5;exitDx=0;exitDy=0;" parent="Iuyj9420e749OwdUtZ9R-1" source="Iuyj9420e749OwdUtZ9R-11" target="Iuyj9420e749OwdUtZ9R-14" edge="1">
                    <mxGeometry x="-0.0878" y="-33" relative="1" as="geometry">
                        <mxPoint x="-360" y="260" as="sourcePoint"/>
                        <mxPoint x="-289.9959753936637" y="746.0000000000002" as="targetPoint"/>
                        <mxPoint as="offset"/>
                    </mxGeometry>
                </mxCell>
                <mxCell id="Iuyj9420e749OwdUtZ9R-54" value="1" style="resizable=0;html=1;align=left;verticalAlign=bottom;labelBackgroundColor=none;" parent="Iuyj9420e749OwdUtZ9R-53" connectable="0" vertex="1">
                    <mxGeometry x="-1" relative="1" as="geometry">
                        <mxPoint x="-10" y="-3" as="offset"/>
                    </mxGeometry>
                </mxCell>
                <mxCell id="Iuyj9420e749OwdUtZ9R-55" value="1" style="resizable=0;html=1;align=right;verticalAlign=bottom;labelBackgroundColor=none;" parent="Iuyj9420e749OwdUtZ9R-53" connectable="0" vertex="1">
                    <mxGeometry x="1" relative="1" as="geometry">
                        <mxPoint x="12.25" y="-5.01" as="offset"/>
                    </mxGeometry>
                </mxCell>
                <mxCell id="Iuyj9420e749OwdUtZ9R-56" value="ROUTES" style="swimlane;fontStyle=1;align=center;verticalAlign=top;childLayout=stackLayout;horizontal=1;startSize=26;horizontalStack=0;resizeParent=1;resizeParentMax=0;resizeLast=0;collapsible=1;marginBottom=0;fontSize=16;" parent="Iuyj9420e749OwdUtZ9R-1" vertex="1">
                    <mxGeometry x="830" y="30" width="320" height="180" as="geometry"/>
                </mxCell>
                <mxCell id="Iuyj9420e749OwdUtZ9R-57" value="- pathname: String&#10;- parameter: ROUTES_PAR" style="text;strokeColor=none;fillColor=none;align=left;verticalAlign=top;spacingLeft=4;spacingRight=4;overflow=hidden;rotatable=0;points=[[0,0.5],[1,0.5]];portConstraint=eastwest;fontSize=16;" parent="Iuyj9420e749OwdUtZ9R-56" vertex="1">
                    <mxGeometry y="26" width="320" height="44" as="geometry"/>
                </mxCell>
                <mxCell id="Iuyj9420e749OwdUtZ9R-58" value="" style="line;strokeWidth=1;fillColor=none;align=left;verticalAlign=middle;spacingTop=-1;spacingLeft=3;spacingRight=3;rotatable=0;labelPosition=right;points=[];portConstraint=eastwest;" parent="Iuyj9420e749OwdUtZ9R-56" vertex="1">
                    <mxGeometry y="70" width="320" height="8" as="geometry"/>
                </mxCell>
                <mxCell id="Iuyj9420e749OwdUtZ9R-59" value="- LoginUI(parameter: ROUTES_PAR)&#10;- BillsUI(parameter: ROUTES_PAR)&#10;- newBillUI(parameter: ROUTES_PAR)&#10;- DashboardUI(parameter: ROUTES_PAR)" style="text;strokeColor=none;fillColor=none;align=left;verticalAlign=top;spacingLeft=4;spacingRight=4;overflow=hidden;rotatable=0;points=[[0,0.5],[1,0.5]];portConstraint=eastwest;fontSize=16;" parent="Iuyj9420e749OwdUtZ9R-56" vertex="1">
                    <mxGeometry y="78" width="320" height="102" as="geometry"/>
                </mxCell>
                <mxCell id="Iuyj9420e749OwdUtZ9R-60" value="◄ call&amp;nbsp;►" style="endArrow=none;html=1;rounded=0;align=center;verticalAlign=top;endFill=0;labelBackgroundColor=none;fontSize=16;entryX=1.001;entryY=0.796;entryDx=0;entryDy=0;entryPerimeter=0;" parent="Iuyj9420e749OwdUtZ9R-1" target="Iuyj9420e749OwdUtZ9R-11" edge="1">
                    <mxGeometry x="-0.7137" y="-30" relative="1" as="geometry">
                        <mxPoint x="260" y="60" as="sourcePoint"/>
                        <mxPoint x="20.004024606336316" y="299.1500000000001" as="targetPoint"/>
                        <mxPoint as="offset"/>
                        <Array as="points">
                            <mxPoint x="120" y="60"/>
                            <mxPoint x="120" y="-299"/>
                        </Array>
                    </mxGeometry>
                </mxCell>
                <mxCell id="Iuyj9420e749OwdUtZ9R-61" value="1" style="resizable=0;html=1;align=left;verticalAlign=bottom;labelBackgroundColor=none;" parent="Iuyj9420e749OwdUtZ9R-60" connectable="0" vertex="1">
                    <mxGeometry x="-1" relative="1" as="geometry">
                        <mxPoint x="-19.12" y="-1.4100000000000001" as="offset"/>
                    </mxGeometry>
                </mxCell>
                <mxCell id="Iuyj9420e749OwdUtZ9R-62" value="1" style="resizable=0;html=1;align=right;verticalAlign=bottom;labelBackgroundColor=none;" parent="Iuyj9420e749OwdUtZ9R-60" connectable="0" vertex="1">
                    <mxGeometry x="1" relative="1" as="geometry">
                        <mxPoint x="12.25" y="-5.01" as="offset"/>
                    </mxGeometry>
                </mxCell>
                <mxCell id="Iuyj9420e749OwdUtZ9R-66" value="◄ call&amp;nbsp;►" style="endArrow=none;html=1;rounded=0;align=center;verticalAlign=top;endFill=0;labelBackgroundColor=none;exitX=0.002;exitY=0.804;exitDx=0;exitDy=0;fontSize=16;exitPerimeter=0;entryX=1.007;entryY=0.827;entryDx=0;entryDy=0;entryPerimeter=0;" parent="Iuyj9420e749OwdUtZ9R-1" source="Iuyj9420e749OwdUtZ9R-7" target="Iuyj9420e749OwdUtZ9R-39" edge="1">
                    <mxGeometry x="-0.5028" y="-29" relative="1" as="geometry">
                        <mxPoint x="269.1199999999999" y="111.41399999999999" as="sourcePoint"/>
                        <mxPoint x="-330.0000000000002" y="400" as="targetPoint"/>
                        <mxPoint as="offset"/>
                        <Array as="points">
                            <mxPoint x="50" y="99"/>
                            <mxPoint x="50" y="2"/>
                        </Array>
                    </mxGeometry>
                </mxCell>
                <mxCell id="Iuyj9420e749OwdUtZ9R-67" value="1" style="resizable=0;html=1;align=left;verticalAlign=bottom;labelBackgroundColor=none;" parent="Iuyj9420e749OwdUtZ9R-66" connectable="0" vertex="1">
                    <mxGeometry x="-1" relative="1" as="geometry">
                        <mxPoint x="-19.12" y="-1.4100000000000001" as="offset"/>
                    </mxGeometry>
                </mxCell>
                <mxCell id="Iuyj9420e749OwdUtZ9R-68" value="1" style="resizable=0;html=1;align=right;verticalAlign=bottom;labelBackgroundColor=none;" parent="Iuyj9420e749OwdUtZ9R-66" connectable="0" vertex="1">
                    <mxGeometry x="1" relative="1" as="geometry">
                        <mxPoint x="12.25" y="-5.01" as="offset"/>
                    </mxGeometry>
                </mxCell>
                <mxCell id="Iuyj9420e749OwdUtZ9R-84" value="call&amp;nbsp;&amp;nbsp;►" style="endArrow=none;html=1;rounded=0;align=center;verticalAlign=top;endFill=0;labelBackgroundColor=none;fontSize=16;entryX=0.002;entryY=0.688;entryDx=0;entryDy=0;entryPerimeter=0;" parent="Iuyj9420e749OwdUtZ9R-1" target="Iuyj9420e749OwdUtZ9R-57" edge="1">
                    <mxGeometry x="0.064" y="27" relative="1" as="geometry">
                        <mxPoint x="700" y="87" as="sourcePoint"/>
                        <mxPoint x="869" y="87" as="targetPoint"/>
                        <mxPoint as="offset"/>
                        <Array as="points"/>
                    </mxGeometry>
                </mxCell>
                <mxCell id="Iuyj9420e749OwdUtZ9R-85" value="1" style="resizable=0;html=1;align=left;verticalAlign=bottom;labelBackgroundColor=none;" parent="Iuyj9420e749OwdUtZ9R-84" connectable="0" vertex="1">
                    <mxGeometry x="-1" relative="1" as="geometry">
                        <mxPoint x="5.199999999999999" y="-10" as="offset"/>
                    </mxGeometry>
                </mxCell>
                <mxCell id="Iuyj9420e749OwdUtZ9R-86" value="1" style="resizable=0;html=1;align=right;verticalAlign=bottom;labelBackgroundColor=none;" parent="Iuyj9420e749OwdUtZ9R-84" connectable="0" vertex="1">
                    <mxGeometry x="1" relative="1" as="geometry">
                        <mxPoint x="-2.8999999999999986" y="-7.489999999999998" as="offset"/>
                    </mxGeometry>
                </mxCell>
                <mxCell id="Iuyj9420e749OwdUtZ9R-87" value="call&lt;br style=&quot;font-size: 16px;&quot;&gt;▼" style="endArrow=none;html=1;rounded=0;align=center;verticalAlign=top;endFill=0;labelBackgroundColor=none;exitX=0.5;exitY=1;exitDx=0;exitDy=0;fontSize=16;entryX=0.5;entryY=0;entryDx=0;entryDy=0;" parent="Iuyj9420e749OwdUtZ9R-1" source="Iuyj9420e749OwdUtZ9R-2" target="Iuyj9420e749OwdUtZ9R-6" edge="1">
                    <mxGeometry x="-0.3312" y="15" relative="1" as="geometry">
                        <mxPoint x="319.99999999999994" y="-109.99599999999995" as="sourcePoint"/>
                        <mxPoint x="320.1309783635333" y="70.28" as="targetPoint"/>
                        <mxPoint as="offset"/>
                        <Array as="points"/>
                    </mxGeometry>
                </mxCell>
                <mxCell id="Iuyj9420e749OwdUtZ9R-88" value="1" style="resizable=0;html=1;align=left;verticalAlign=bottom;labelBackgroundColor=none;" parent="Iuyj9420e749OwdUtZ9R-87" connectable="0" vertex="1">
                    <mxGeometry x="-1" relative="1" as="geometry">
                        <mxPoint x="5.199999999999999" y="20.28" as="offset"/>
                    </mxGeometry>
                </mxCell>
                <mxCell id="Iuyj9420e749OwdUtZ9R-89" value="1" style="resizable=0;html=1;align=right;verticalAlign=bottom;labelBackgroundColor=none;" parent="Iuyj9420e749OwdUtZ9R-87" connectable="0" vertex="1">
                    <mxGeometry x="1" relative="1" as="geometry">
                        <mxPoint x="12.25" y="-5.01" as="offset"/>
                    </mxGeometry>
                </mxCell>
                <mxCell id="Iuyj9420e749OwdUtZ9R-113" value="◄ call&amp;nbsp;►" style="endArrow=none;html=1;rounded=0;align=center;verticalAlign=top;endFill=0;labelBackgroundColor=none;fontSize=16;entryX=1;entryY=0.5;entryDx=0;entryDy=0;exitX=0.002;exitY=0.337;exitDx=0;exitDy=0;exitPerimeter=0;" parent="Iuyj9420e749OwdUtZ9R-1" source="Iuyj9420e749OwdUtZ9R-9" target="Iuyj9420e749OwdUtZ9R-23" edge="1">
                    <mxGeometry x="-0.5151" y="-29" relative="1" as="geometry">
                        <mxPoint x="270.8800000000001" y="109.41600000000017" as="sourcePoint"/>
                        <mxPoint x="-177.9000000000001" y="12.008000000000038" as="targetPoint"/>
                        <mxPoint as="offset"/>
                        <Array as="points">
                            <mxPoint x="50" y="149"/>
                            <mxPoint x="50" y="253"/>
                        </Array>
                    </mxGeometry>
                </mxCell>
                <mxCell id="Iuyj9420e749OwdUtZ9R-114" value="1" style="resizable=0;html=1;align=left;verticalAlign=bottom;labelBackgroundColor=none;" parent="Iuyj9420e749OwdUtZ9R-113" connectable="0" vertex="1">
                    <mxGeometry x="-1" relative="1" as="geometry">
                        <mxPoint x="-19.12" y="-1.4100000000000001" as="offset"/>
                    </mxGeometry>
                </mxCell>
                <mxCell id="Iuyj9420e749OwdUtZ9R-115" value="1" style="resizable=0;html=1;align=right;verticalAlign=bottom;labelBackgroundColor=none;" parent="Iuyj9420e749OwdUtZ9R-113" connectable="0" vertex="1">
                    <mxGeometry x="1" relative="1" as="geometry">
                        <mxPoint x="12.25" y="-5.01" as="offset"/>
                    </mxGeometry>
                </mxCell>
                <mxCell id="Iuyj9420e749OwdUtZ9R-116" value="◄&amp;nbsp;call" style="endArrow=none;html=1;rounded=0;align=center;verticalAlign=top;endFill=0;labelBackgroundColor=none;fontSize=14;exitX=0.001;exitY=0.269;exitDx=0;exitDy=0;entryX=1;entryY=0.5;entryDx=0;entryDy=0;exitPerimeter=0;" parent="Iuyj9420e749OwdUtZ9R-1" source="Iuyj9420e749OwdUtZ9R-39" target="Iuyj9420e749OwdUtZ9R-47" edge="1">
                    <mxGeometry x="0.0987" y="-33" relative="1" as="geometry">
                        <mxPoint x="-330" y="-29.420000000000016" as="sourcePoint"/>
                        <mxPoint x="-440" y="-29.998947368421057" as="targetPoint"/>
                        <mxPoint as="offset"/>
                    </mxGeometry>
                </mxCell>
                <mxCell id="Iuyj9420e749OwdUtZ9R-117" value="1" style="resizable=0;html=1;align=left;verticalAlign=bottom;labelBackgroundColor=none;" parent="Iuyj9420e749OwdUtZ9R-116" connectable="0" vertex="1">
                    <mxGeometry x="-1" relative="1" as="geometry">
                        <mxPoint x="-10" y="-3" as="offset"/>
                    </mxGeometry>
                </mxCell>
                <mxCell id="Iuyj9420e749OwdUtZ9R-118" value="1" style="resizable=0;html=1;align=right;verticalAlign=bottom;labelBackgroundColor=none;" parent="Iuyj9420e749OwdUtZ9R-116" connectable="0" vertex="1">
                    <mxGeometry x="1" relative="1" as="geometry">
                        <mxPoint x="12.25" y="-5.01" as="offset"/>
                    </mxGeometry>
                </mxCell>
                <mxCell id="Iuyj9420e749OwdUtZ9R-119" value="◄ call&amp;nbsp;►" style="endArrow=none;html=1;rounded=0;align=center;verticalAlign=top;endFill=0;labelBackgroundColor=none;fontSize=16;exitX=0.002;exitY=0.879;exitDx=0;exitDy=0;exitPerimeter=0;entryX=1;entryY=0.5;entryDx=0;entryDy=0;" parent="Iuyj9420e749OwdUtZ9R-1" source="Iuyj9420e749OwdUtZ9R-9" target="Iuyj9420e749OwdUtZ9R-31" edge="1">
                    <mxGeometry x="-0.7021" y="-29" relative="1" as="geometry">
                        <mxPoint x="270.87999999999965" y="159.0039999999999" as="sourcePoint"/>
                        <mxPoint x="-160" y="380" as="targetPoint"/>
                        <mxPoint as="offset"/>
                        <Array as="points">
                            <mxPoint x="120" y="199"/>
                            <mxPoint x="120" y="528"/>
                        </Array>
                    </mxGeometry>
                </mxCell>
                <mxCell id="Iuyj9420e749OwdUtZ9R-120" value="1" style="resizable=0;html=1;align=left;verticalAlign=bottom;labelBackgroundColor=none;" parent="Iuyj9420e749OwdUtZ9R-119" connectable="0" vertex="1">
                    <mxGeometry x="-1" relative="1" as="geometry">
                        <mxPoint x="-19.12" y="-1.4100000000000001" as="offset"/>
                    </mxGeometry>
                </mxCell>
                <mxCell id="Iuyj9420e749OwdUtZ9R-121" value="1" style="resizable=0;html=1;align=right;verticalAlign=bottom;labelBackgroundColor=none;" parent="Iuyj9420e749OwdUtZ9R-119" connectable="0" vertex="1">
                    <mxGeometry x="1" relative="1" as="geometry">
                        <mxPoint x="12.25" y="-5.01" as="offset"/>
                    </mxGeometry>
                </mxCell>
                <mxCell id="Iuyj9420e749OwdUtZ9R-90" value="Logout" style="swimlane;fontStyle=1;align=center;verticalAlign=top;childLayout=stackLayout;horizontal=1;startSize=26;horizontalStack=0;resizeParent=1;resizeParentMax=0;resizeLast=0;collapsible=1;marginBottom=0;fontSize=16;" parent="Iuyj9420e749OwdUtZ9R-1" vertex="1">
                    <mxGeometry x="-910" y="50" width="300" height="170" as="geometry"/>
                </mxCell>
                <mxCell id="Iuyj9420e749OwdUtZ9R-91" value="- document: htmlElement&#10;- localStorage: String&#10;" style="text;strokeColor=none;fillColor=none;align=left;verticalAlign=top;spacingLeft=4;spacingRight=4;overflow=hidden;rotatable=0;points=[[0,0.5],[1,0.5]];portConstraint=eastwest;fontSize=16;" parent="Iuyj9420e749OwdUtZ9R-90" vertex="1">
                    <mxGeometry y="26" width="300" height="64" as="geometry"/>
                </mxCell>
                <mxCell id="Iuyj9420e749OwdUtZ9R-92" value="" style="line;strokeWidth=1;fillColor=none;align=left;verticalAlign=middle;spacingTop=-1;spacingLeft=3;spacingRight=3;rotatable=0;labelPosition=right;points=[];portConstraint=eastwest;" parent="Iuyj9420e749OwdUtZ9R-90" vertex="1">
                    <mxGeometry y="90" width="300" height="8" as="geometry"/>
                </mxCell>
                <mxCell id="Iuyj9420e749OwdUtZ9R-93" value="- handleClick()&#10;- onNavigate(pathname: String)" style="text;strokeColor=none;fillColor=none;align=left;verticalAlign=top;spacingLeft=4;spacingRight=4;overflow=hidden;rotatable=0;points=[[0,0.5],[1,0.5]];portConstraint=eastwest;fontSize=16;fontColor=#F0F0F0;" parent="Iuyj9420e749OwdUtZ9R-90" vertex="1">
                    <mxGeometry y="98" width="300" height="72" as="geometry"/>
                </mxCell>
                <mxCell id="Iuyj9420e749OwdUtZ9R-122" value="call&lt;br&gt;▼" style="endArrow=none;html=1;rounded=0;align=center;verticalAlign=top;endFill=0;labelBackgroundColor=none;fontSize=16;entryX=0.573;entryY=-0.001;entryDx=0;entryDy=0;entryPerimeter=0;" parent="Iuyj9420e749OwdUtZ9R-1" target="Iuyj9420e749OwdUtZ9R-90" edge="1">
                    <mxGeometry x="0.724" y="18" relative="1" as="geometry">
                        <mxPoint x="-312" y="-200" as="sourcePoint"/>
                        <mxPoint x="-859.9999999999998" y="-69.99599999999992" as="targetPoint"/>
                        <mxPoint as="offset"/>
                        <Array as="points">
                            <mxPoint x="-738" y="-200"/>
                        </Array>
                    </mxGeometry>
                </mxCell>
                <mxCell id="Iuyj9420e749OwdUtZ9R-123" value="1" style="resizable=0;html=1;align=left;verticalAlign=bottom;labelBackgroundColor=none;" parent="Iuyj9420e749OwdUtZ9R-122" connectable="0" vertex="1">
                    <mxGeometry x="-1" relative="1" as="geometry">
                        <mxPoint x="-19.12" y="-1.4100000000000001" as="offset"/>
                    </mxGeometry>
                </mxCell>
                <mxCell id="Iuyj9420e749OwdUtZ9R-124" value="1" style="resizable=0;html=1;align=right;verticalAlign=bottom;labelBackgroundColor=none;" parent="Iuyj9420e749OwdUtZ9R-122" connectable="0" vertex="1">
                    <mxGeometry x="1" relative="1" as="geometry">
                        <mxPoint x="12.25" y="-5.01" as="offset"/>
                    </mxGeometry>
                </mxCell>
                <mxCell id="Iuyj9420e749OwdUtZ9R-125" value="◄ call" style="endArrow=none;html=1;rounded=0;align=center;verticalAlign=top;endFill=0;labelBackgroundColor=none;fontSize=16;exitX=-0.001;exitY=0.833;exitDx=0;exitDy=0;exitPerimeter=0;entryX=0.998;entryY=0.219;entryDx=0;entryDy=0;entryPerimeter=0;" parent="Iuyj9420e749OwdUtZ9R-1" source="Iuyj9420e749OwdUtZ9R-41" target="Iuyj9420e749OwdUtZ9R-91" edge="1">
                    <mxGeometry x="0.6634" y="-30" relative="1" as="geometry">
                        <mxPoint x="-327" y="80" as="sourcePoint"/>
                        <mxPoint x="-727" y="81" as="targetPoint"/>
                        <mxPoint as="offset"/>
                        <Array as="points"/>
                    </mxGeometry>
                </mxCell>
                <mxCell id="Iuyj9420e749OwdUtZ9R-126" value="1" style="resizable=0;html=1;align=left;verticalAlign=bottom;labelBackgroundColor=none;" parent="Iuyj9420e749OwdUtZ9R-125" connectable="0" vertex="1">
                    <mxGeometry x="-1" relative="1" as="geometry">
                        <mxPoint x="-19.12" y="-1.4100000000000001" as="offset"/>
                    </mxGeometry>
                </mxCell>
                <mxCell id="Iuyj9420e749OwdUtZ9R-127" value="1" style="resizable=0;html=1;align=right;verticalAlign=bottom;labelBackgroundColor=none;" parent="Iuyj9420e749OwdUtZ9R-125" connectable="0" vertex="1">
                    <mxGeometry x="1" relative="1" as="geometry">
                        <mxPoint x="12.25" y="-5.01" as="offset"/>
                    </mxGeometry>
                </mxCell>
                <mxCell id="Iuyj9420e749OwdUtZ9R-128" value="◄ call" style="endArrow=none;html=1;rounded=0;align=center;verticalAlign=top;endFill=0;labelBackgroundColor=none;fontSize=16;entryX=0.997;entryY=0.85;entryDx=0;entryDy=0;entryPerimeter=0;" parent="Iuyj9420e749OwdUtZ9R-1" target="Iuyj9420e749OwdUtZ9R-93" edge="1">
                    <mxGeometry x="0.6634" y="-30" relative="1" as="geometry">
                        <mxPoint x="-310" y="209" as="sourcePoint"/>
                        <mxPoint x="-730.3000000000002" y="202.03599999999994" as="targetPoint"/>
                        <mxPoint as="offset"/>
                        <Array as="points"/>
                    </mxGeometry>
                </mxCell>
                <mxCell id="Iuyj9420e749OwdUtZ9R-129" value="1" style="resizable=0;html=1;align=left;verticalAlign=bottom;labelBackgroundColor=none;" parent="Iuyj9420e749OwdUtZ9R-128" connectable="0" vertex="1">
                    <mxGeometry x="-1" relative="1" as="geometry">
                        <mxPoint x="-19.12" y="-1.4100000000000001" as="offset"/>
                    </mxGeometry>
                </mxCell>
                <mxCell id="Iuyj9420e749OwdUtZ9R-130" value="1" style="resizable=0;html=1;align=right;verticalAlign=bottom;labelBackgroundColor=none;" parent="Iuyj9420e749OwdUtZ9R-128" connectable="0" vertex="1">
                    <mxGeometry x="1" relative="1" as="geometry">
                        <mxPoint x="12.25" y="-5.01" as="offset"/>
                    </mxGeometry>
                </mxCell>
                <mxCell id="Iuyj9420e749OwdUtZ9R-131" value="▲&lt;br&gt;call" style="endArrow=none;html=1;rounded=0;align=center;verticalAlign=top;endFill=0;labelBackgroundColor=none;fontSize=16;entryX=0.557;entryY=0.989;entryDx=0;entryDy=0;exitX=0;exitY=0.5;exitDx=0;exitDy=0;entryPerimeter=0;" parent="Iuyj9420e749OwdUtZ9R-1" source="Iuyj9420e749OwdUtZ9R-31" target="Iuyj9420e749OwdUtZ9R-93" edge="1">
                    <mxGeometry x="0.8338" y="-23" relative="1" as="geometry">
                        <mxPoint x="-297" y="289.9999999999999" as="sourcePoint"/>
                        <mxPoint x="-940.0000000000002" y="540" as="targetPoint"/>
                        <mxPoint as="offset"/>
                        <Array as="points">
                            <mxPoint x="-743" y="528"/>
                        </Array>
                    </mxGeometry>
                </mxCell>
                <mxCell id="Iuyj9420e749OwdUtZ9R-132" value="1" style="resizable=0;html=1;align=left;verticalAlign=bottom;labelBackgroundColor=none;" parent="Iuyj9420e749OwdUtZ9R-131" connectable="0" vertex="1">
                    <mxGeometry x="-1" relative="1" as="geometry">
                        <mxPoint x="-19.12" y="-1.4100000000000001" as="offset"/>
                    </mxGeometry>
                </mxCell>
                <mxCell id="Iuyj9420e749OwdUtZ9R-133" value="1" style="resizable=0;html=1;align=right;verticalAlign=bottom;labelBackgroundColor=none;" parent="Iuyj9420e749OwdUtZ9R-131" connectable="0" vertex="1">
                    <mxGeometry x="1" relative="1" as="geometry">
                        <mxPoint x="12.25" y="20.759999999999998" as="offset"/>
                    </mxGeometry>
                </mxCell>
                <mxCell id="Iuyj9420e749OwdUtZ9R-135" value="ROUTES_PAR" style="swimlane;fontStyle=1;align=center;verticalAlign=top;childLayout=stackLayout;horizontal=1;startSize=26;horizontalStack=0;resizeParent=1;resizeParentMax=0;resizeLast=0;collapsible=1;marginBottom=0;fontSize=16;" parent="Iuyj9420e749OwdUtZ9R-1" vertex="1">
                    <mxGeometry x="660" y="250" width="210" height="110" as="geometry"/>
                </mxCell>
                <mxCell id="Iuyj9420e749OwdUtZ9R-136" value="- data: any&#10;- error: Error&#10;- loading: Boolean" style="text;strokeColor=none;fillColor=none;align=left;verticalAlign=top;spacingLeft=4;spacingRight=4;overflow=hidden;rotatable=0;points=[[0,0.5],[1,0.5]];portConstraint=eastwest;fontSize=16;" parent="Iuyj9420e749OwdUtZ9R-135" vertex="1">
                    <mxGeometry y="26" width="210" height="64" as="geometry"/>
                </mxCell>
                <mxCell id="Iuyj9420e749OwdUtZ9R-137" value="" style="line;strokeWidth=1;fillColor=none;align=left;verticalAlign=middle;spacingTop=-1;spacingLeft=3;spacingRight=3;rotatable=0;labelPosition=right;points=[];portConstraint=eastwest;" parent="Iuyj9420e749OwdUtZ9R-135" vertex="1">
                    <mxGeometry y="90" width="210" height="8" as="geometry"/>
                </mxCell>
                <mxCell id="Iuyj9420e749OwdUtZ9R-138" value=" " style="text;strokeColor=none;fillColor=none;align=left;verticalAlign=top;spacingLeft=4;spacingRight=4;overflow=hidden;rotatable=0;points=[[0,0.5],[1,0.5]];portConstraint=eastwest;fontSize=16;" parent="Iuyj9420e749OwdUtZ9R-135" vertex="1">
                    <mxGeometry y="98" width="210" height="12" as="geometry"/>
                </mxCell>
                <mxCell id="FpjWeSytxLEbmDXVLaxc-0" value="ROUTES_PATH" style="swimlane;fontStyle=5;align=center;verticalAlign=top;childLayout=stackLayout;horizontal=1;startSize=26;horizontalStack=0;resizeParent=1;resizeParentMax=0;resizeLast=0;collapsible=1;marginBottom=0;fontSize=16;" parent="Iuyj9420e749OwdUtZ9R-1" vertex="1">
                    <mxGeometry x="890" y="-210" width="200" height="150" as="geometry"/>
                </mxCell>
                <mxCell id="FpjWeSytxLEbmDXVLaxc-1" value="+ Login: String&#10;+ Bills: String&#10;+ NewBill : String&#10;+ Admin: String" style="text;strokeColor=none;fillColor=none;align=left;verticalAlign=top;spacingLeft=4;spacingRight=4;overflow=hidden;rotatable=0;points=[[0,0.5],[1,0.5]];portConstraint=eastwest;fontSize=16;" parent="FpjWeSytxLEbmDXVLaxc-0" vertex="1">
                    <mxGeometry y="26" width="200" height="94" as="geometry"/>
                </mxCell>
                <mxCell id="FpjWeSytxLEbmDXVLaxc-2" value="" style="line;strokeWidth=1;fillColor=none;align=left;verticalAlign=middle;spacingTop=-1;spacingLeft=3;spacingRight=3;rotatable=0;labelPosition=right;points=[];portConstraint=eastwest;" parent="FpjWeSytxLEbmDXVLaxc-0" vertex="1">
                    <mxGeometry y="120" width="200" height="8" as="geometry"/>
                </mxCell>
                <mxCell id="FpjWeSytxLEbmDXVLaxc-3" value=" " style="text;strokeColor=none;fillColor=none;align=left;verticalAlign=top;spacingLeft=4;spacingRight=4;overflow=hidden;rotatable=0;points=[[0,0.5],[1,0.5]];portConstraint=eastwest;fontSize=16;" parent="FpjWeSytxLEbmDXVLaxc-0" vertex="1">
                    <mxGeometry y="128" width="200" height="22" as="geometry"/>
                </mxCell>
                <mxCell id="FpjWeSytxLEbmDXVLaxc-4" value="" style="endArrow=none;dashed=1;html=1;fontSize=16;exitX=0.5;exitY=0;exitDx=0;exitDy=0;" parent="Iuyj9420e749OwdUtZ9R-1" source="Iuyj9420e749OwdUtZ9R-135" edge="1">
                    <mxGeometry width="50" height="50" relative="1" as="geometry">
                        <mxPoint x="1010" y="120" as="sourcePoint"/>
                        <mxPoint x="765" y="90" as="targetPoint"/>
                    </mxGeometry>
                </mxCell>
                <mxCell id="FpjWeSytxLEbmDXVLaxc-5" value="▲&lt;br&gt;use" style="endArrow=none;html=1;rounded=0;align=center;verticalAlign=top;endFill=0;labelBackgroundColor=none;fontSize=16;exitX=0.5;exitY=0;exitDx=0;exitDy=0;" parent="Iuyj9420e749OwdUtZ9R-1" source="Iuyj9420e749OwdUtZ9R-56" target="FpjWeSytxLEbmDXVLaxc-3" edge="1">
                    <mxGeometry x="0.6244" y="20" relative="1" as="geometry">
                        <mxPoint x="990" y="10" as="sourcePoint"/>
                        <mxPoint x="1070.6399999999999" y="-5.588000000000065" as="targetPoint"/>
                        <mxPoint y="-1" as="offset"/>
                        <Array as="points"/>
                    </mxGeometry>
                </mxCell>
                <mxCell id="FpjWeSytxLEbmDXVLaxc-6" value="1" style="resizable=0;html=1;align=left;verticalAlign=bottom;labelBackgroundColor=none;" parent="FpjWeSytxLEbmDXVLaxc-5" connectable="0" vertex="1">
                    <mxGeometry x="-1" relative="1" as="geometry">
                        <mxPoint x="3.1999999999999993" y="-8" as="offset"/>
                    </mxGeometry>
                </mxCell>
                <mxCell id="FpjWeSytxLEbmDXVLaxc-7" value="1" style="resizable=0;html=1;align=right;verticalAlign=bottom;labelBackgroundColor=none;" parent="FpjWeSytxLEbmDXVLaxc-5" connectable="0" vertex="1">
                    <mxGeometry x="1" relative="1" as="geometry">
                        <mxPoint x="11.8" y="20.000000000000004" as="offset"/>
                    </mxGeometry>
                </mxCell>
                <mxCell id="syfWyTUePcLdjiyzzt-1-0" value="NewBillUI" style="swimlane;fontStyle=1;align=center;verticalAlign=top;childLayout=stackLayout;horizontal=1;startSize=26;horizontalStack=0;resizeParent=1;resizeParentMax=0;resizeLast=0;collapsible=1;marginBottom=0;fontSize=16;" parent="Iuyj9420e749OwdUtZ9R-1" vertex="1">
                    <mxGeometry x="1320" y="405" width="210" height="110" as="geometry"/>
                </mxCell>
                <mxCell id="syfWyTUePcLdjiyzzt-1-1" value=" " style="text;strokeColor=none;fillColor=none;align=left;verticalAlign=top;spacingLeft=4;spacingRight=4;overflow=hidden;rotatable=0;points=[[0,0.5],[1,0.5]];portConstraint=eastwest;fontSize=16;" parent="syfWyTUePcLdjiyzzt-1-0" vertex="1">
                    <mxGeometry y="26" width="210" height="34" as="geometry"/>
                </mxCell>
                <mxCell id="syfWyTUePcLdjiyzzt-1-2" value="" style="line;strokeWidth=1;fillColor=none;align=left;verticalAlign=middle;spacingTop=-1;spacingLeft=3;spacingRight=3;rotatable=0;labelPosition=right;points=[];portConstraint=eastwest;" parent="syfWyTUePcLdjiyzzt-1-0" vertex="1">
                    <mxGeometry y="60" width="210" height="8" as="geometry"/>
                </mxCell>
                <mxCell id="syfWyTUePcLdjiyzzt-1-3" value="- return(): String" style="text;strokeColor=none;fillColor=none;align=left;verticalAlign=top;spacingLeft=4;spacingRight=4;overflow=hidden;rotatable=0;points=[[0,0.5],[1,0.5]];portConstraint=eastwest;fontSize=16;" parent="syfWyTUePcLdjiyzzt-1-0" vertex="1">
                    <mxGeometry y="68" width="210" height="42" as="geometry"/>
                </mxCell>
                <mxCell id="xSrFVyXJeDbZ33RNa4Ri-0" value="BillsUI" style="swimlane;fontStyle=1;align=center;verticalAlign=top;childLayout=stackLayout;horizontal=1;startSize=26;horizontalStack=0;resizeParent=1;resizeParentMax=0;resizeLast=0;collapsible=1;marginBottom=0;fontSize=16;" parent="Iuyj9420e749OwdUtZ9R-1" vertex="1">
                    <mxGeometry x="1320" y="137" width="210" height="208" as="geometry"/>
                </mxCell>
                <mxCell id="xSrFVyXJeDbZ33RNa4Ri-1" value="- data: Array&#10;- loading: boolean&#10;- modal : String" style="text;strokeColor=none;fillColor=none;align=left;verticalAlign=top;spacingLeft=4;spacingRight=4;overflow=hidden;rotatable=0;points=[[0,0.5],[1,0.5]];portConstraint=eastwest;fontSize=16;" parent="xSrFVyXJeDbZ33RNa4Ri-0" vertex="1">
                    <mxGeometry y="26" width="210" height="64" as="geometry"/>
                </mxCell>
                <mxCell id="xSrFVyXJeDbZ33RNa4Ri-2" value="" style="line;strokeWidth=1;fillColor=none;align=left;verticalAlign=middle;spacingTop=-1;spacingLeft=3;spacingRight=3;rotatable=0;labelPosition=right;points=[];portConstraint=eastwest;" parent="xSrFVyXJeDbZ33RNa4Ri-0" vertex="1">
                    <mxGeometry y="90" width="210" height="8" as="geometry"/>
                </mxCell>
                <mxCell id="xSrFVyXJeDbZ33RNa4Ri-3" value="- LoadingPage()&#10;- ErrorPage(error: Error)&#10;- rows(data: Array): String&#10;- row(bill: Object): String &#10;- return(): String" style="text;strokeColor=none;fillColor=none;align=left;verticalAlign=top;spacingLeft=4;spacingRight=4;overflow=hidden;rotatable=0;points=[[0,0.5],[1,0.5]];portConstraint=eastwest;fontSize=16;" parent="xSrFVyXJeDbZ33RNa4Ri-0" vertex="1">
                    <mxGeometry y="98" width="210" height="110" as="geometry"/>
                </mxCell>
                <mxCell id="xSrFVyXJeDbZ33RNa4Ri-4" value="Actions" style="swimlane;fontStyle=1;align=center;verticalAlign=top;childLayout=stackLayout;horizontal=1;startSize=26;horizontalStack=0;resizeParent=1;resizeParentMax=0;resizeLast=0;collapsible=1;marginBottom=0;fontSize=16;" parent="Iuyj9420e749OwdUtZ9R-1" vertex="1">
                    <mxGeometry x="1650" y="280" width="140" height="120" as="geometry"/>
                </mxCell>
                <mxCell id="xSrFVyXJeDbZ33RNa4Ri-5" value="- billUrl: String" style="text;strokeColor=none;fillColor=none;align=left;verticalAlign=top;spacingLeft=4;spacingRight=4;overflow=hidden;rotatable=0;points=[[0,0.5],[1,0.5]];portConstraint=eastwest;fontSize=16;" parent="xSrFVyXJeDbZ33RNa4Ri-4" vertex="1">
                    <mxGeometry y="26" width="140" height="34" as="geometry"/>
                </mxCell>
                <mxCell id="xSrFVyXJeDbZ33RNa4Ri-6" value="" style="line;strokeWidth=1;fillColor=none;align=left;verticalAlign=middle;spacingTop=-1;spacingLeft=3;spacingRight=3;rotatable=0;labelPosition=right;points=[];portConstraint=eastwest;" parent="xSrFVyXJeDbZ33RNa4Ri-4" vertex="1">
                    <mxGeometry y="60" width="140" height="8" as="geometry"/>
                </mxCell>
                <mxCell id="xSrFVyXJeDbZ33RNa4Ri-7" value="- return(): String" style="text;strokeColor=none;fillColor=none;align=left;verticalAlign=top;spacingLeft=4;spacingRight=4;overflow=hidden;rotatable=0;points=[[0,0.5],[1,0.5]];portConstraint=eastwest;fontSize=16;fontColor=#F0F0F0;" parent="xSrFVyXJeDbZ33RNa4Ri-4" vertex="1">
                    <mxGeometry y="68" width="140" height="52" as="geometry"/>
                </mxCell>
                <mxCell id="xSrFVyXJeDbZ33RNa4Ri-8" value="&lt;div&gt;&lt;span&gt;call&amp;nbsp;&lt;/span&gt;&lt;span&gt;►&lt;/span&gt;&lt;span style=&quot;color: rgba(0 , 0 , 0 , 0) ; font-family: monospace ; font-size: 0px&quot;&gt;3CmxGraphModel%3E%3Croot%3E%3CmxCell%20id%3D%220%22%2F%3E%3CmxCell%20id%3D%221%22%20parent%3D%220%22%2F%3E%3CmxCell%20id%3D%222%22%20value%3D%22call%26amp%3Bnbsp%3B%E2%96%BA%22%20style%3D%22endArrow%3Dnone%3Bhtml%3D1%3Brounded%3D0%3Balign%3Dcenter%3BverticalAlign%3Dtop%3BendFill%3D0%3BlabelBackgroundColor%3Dnone%3BfontSize%3D16%3BentryX%3D1.002%3BentryY%3D0.015%3BentryDx%3D0%3BentryDy%3D0%3BentryPerimeter%3D0%3BexitX%3D0.001%3BexitY%3D0.39%3BexitDx%3D0%3BexitDy%3D0%3BexitPerimeter%3D0%3B%22%20edge%3D%221%22%20parent%3D%221%22%3E%3CmxGeometry%20x%3D%220.6055%22%20y%3D%22-30%22%20relative%3D%221%22%20as%3D%22geometry%22%3E%3CmxPoint%20x%3D%221320.19%22%20y%3D%2229.980000000000018%22%20as%3D%22sourcePoint%22%2F%3E%3CmxPoint%20x%3D%221150.6399999999999%22%20y%3D%22109.53000000000009%22%20as%3D%22targetPoint%22%2F%3E%3CmxPoint%20as%3D%22offset%22%2F%3E%3CArray%20as%3D%22points%22%3E%3CmxPoint%20x%3D%221250%22%20y%3D%2230%22%2F%3E%3CmxPoint%20x%3D%221250%22%20y%3D%22110%22%2F%3E%3C%2FArray%3E%3C%2FmxGeometry%3E%3C%2FmxCell%3E%3CmxCell%20id%3D%223%22%20value%3D%221%22%20style%3D%22resizable%3D0%3Bhtml%3D1%3Balign%3Dleft%3BverticalAlign%3Dbottom%3BlabelBackgroundColor%3Dnone%3B%22%20connectable%3D%220%22%20vertex%3D%221%22%20parent%3D%222%22%3E%3CmxGeometry%20x%3D%22-1%22%20relative%3D%221%22%20as%3D%22geometry%22%3E%3CmxPoint%20x%3D%22-19.12%22%20y%3D%22-1.4100000000000001%22%20as%3D%22offset%22%2F%3E%3C%2FmxGeometry%3E%3C%2FmxCell%3E%3CmxCell%20id%3D%224%22%20value%3D%221%22%20style%3D%22resizable%3D0%3Bhtml%3D1%3Balign%3Dright%3BverticalAlign%3Dbottom%3BlabelBackgroundColor%3Dnone%3B%22%20connectable%3D%220%22%20vertex%3D%221%22%20parent%3D%222%22%3E%3CmxGeometry%20x%3D%221%22%20relative%3D%221%22%20as%3D%22geometry%22%3E%3CmxPoint%20x%3D%2212.25%22%20y%3D%22-5.01%22%20as%3D%22offset%22%2F%3E%3C%2FmxGeometry%3E%3C%2FmxCell%3E%3C%2Froot%3E%3C%2FmxGraphModel%3E&amp;nbsp;&lt;/span&gt;&lt;span style=&quot;font-size: 0px&quot;&gt;&lt;font color=&quot;rgba(0, 0, 0, 0)&quot; face=&quot;monospace&quot;&gt;► ddd&amp;nbsp;&lt;/font&gt;&lt;/span&gt;&lt;/div&gt;" style="endArrow=none;html=1;rounded=0;align=center;verticalAlign=top;endFill=0;labelBackgroundColor=none;fontSize=16;exitX=1.001;exitY=0.846;exitDx=0;exitDy=0;exitPerimeter=0;entryX=-0.002;entryY=0.678;entryDx=0;entryDy=0;entryPerimeter=0;" parent="Iuyj9420e749OwdUtZ9R-1" source="xSrFVyXJeDbZ33RNa4Ri-3" target="xSrFVyXJeDbZ33RNa4Ri-5" edge="1">
                    <mxGeometry x="0.042" y="36" relative="1" as="geometry">
                        <mxPoint x="1532" y="299" as="sourcePoint"/>
                        <mxPoint x="1640" y="298" as="targetPoint"/>
                        <mxPoint as="offset"/>
                        <Array as="points"/>
                    </mxGeometry>
                </mxCell>
                <mxCell id="xSrFVyXJeDbZ33RNa4Ri-9" value="1" style="resizable=0;html=1;align=left;verticalAlign=bottom;labelBackgroundColor=none;" parent="xSrFVyXJeDbZ33RNa4Ri-8" connectable="0" vertex="1">
                    <mxGeometry x="-1" relative="1" as="geometry">
                        <mxPoint x="5.199999999999999" y="-5" as="offset"/>
                    </mxGeometry>
                </mxCell>
                <mxCell id="xSrFVyXJeDbZ33RNa4Ri-10" value="1" style="resizable=0;html=1;align=right;verticalAlign=bottom;labelBackgroundColor=none;" parent="xSrFVyXJeDbZ33RNa4Ri-8" connectable="0" vertex="1">
                    <mxGeometry x="1" relative="1" as="geometry">
                        <mxPoint x="-11.719999999999999" y="-5.01" as="offset"/>
                    </mxGeometry>
                </mxCell>
                <mxCell id="wX3ppQXFWDXDYtBFlKPU-0" value="DashboardUI" style="swimlane;fontStyle=1;align=center;verticalAlign=top;childLayout=stackLayout;horizontal=1;startSize=26;horizontalStack=0;resizeParent=1;resizeParentMax=0;resizeLast=0;collapsible=1;marginBottom=0;fontSize=16;" parent="Iuyj9420e749OwdUtZ9R-1" vertex="1">
                    <mxGeometry x="1320" y="-110" width="210" height="190" as="geometry"/>
                </mxCell>
                <mxCell id="wX3ppQXFWDXDYtBFlKPU-1" value="- data: Array&#10;- loading: boolean&#10;- modal : String" style="text;strokeColor=none;fillColor=none;align=left;verticalAlign=top;spacingLeft=4;spacingRight=4;overflow=hidden;rotatable=0;points=[[0,0.5],[1,0.5]];portConstraint=eastwest;fontSize=16;" parent="wX3ppQXFWDXDYtBFlKPU-0" vertex="1">
                    <mxGeometry y="26" width="210" height="74" as="geometry"/>
                </mxCell>
                <mxCell id="wX3ppQXFWDXDYtBFlKPU-2" value="" style="line;strokeWidth=1;fillColor=none;align=left;verticalAlign=middle;spacingTop=-1;spacingLeft=3;spacingRight=3;rotatable=0;labelPosition=right;points=[];portConstraint=eastwest;" parent="wX3ppQXFWDXDYtBFlKPU-0" vertex="1">
                    <mxGeometry y="100" width="210" height="8" as="geometry"/>
                </mxCell>
                <mxCell id="wX3ppQXFWDXDYtBFlKPU-3" value="- LoadingPage()&#10;- ErrorPage(error: Error) &#10;- return(): String" style="text;strokeColor=none;fillColor=none;align=left;verticalAlign=top;spacingLeft=4;spacingRight=4;overflow=hidden;rotatable=0;points=[[0,0.5],[1,0.5]];portConstraint=eastwest;fontSize=16;fontColor=#F0F0F0;" parent="wX3ppQXFWDXDYtBFlKPU-0" vertex="1">
                    <mxGeometry y="108" width="210" height="82" as="geometry"/>
                </mxCell>
                <mxCell id="RxH47U0A1Yjk8LxNgKOG-0" value="LoginUI" style="swimlane;fontStyle=1;align=center;verticalAlign=top;childLayout=stackLayout;horizontal=1;startSize=26;horizontalStack=0;resizeParent=1;resizeParentMax=0;resizeLast=0;collapsible=1;marginBottom=0;fontSize=16;" parent="Iuyj9420e749OwdUtZ9R-1" vertex="1">
                    <mxGeometry x="1320" y="-260" width="210" height="110" as="geometry"/>
                </mxCell>
                <mxCell id="RxH47U0A1Yjk8LxNgKOG-1" value=" " style="text;strokeColor=none;fillColor=none;align=left;verticalAlign=top;spacingLeft=4;spacingRight=4;overflow=hidden;rotatable=0;points=[[0,0.5],[1,0.5]];portConstraint=eastwest;fontSize=16;" parent="RxH47U0A1Yjk8LxNgKOG-0" vertex="1">
                    <mxGeometry y="26" width="210" height="34" as="geometry"/>
                </mxCell>
                <mxCell id="RxH47U0A1Yjk8LxNgKOG-2" value="" style="line;strokeWidth=1;fillColor=none;align=left;verticalAlign=middle;spacingTop=-1;spacingLeft=3;spacingRight=3;rotatable=0;labelPosition=right;points=[];portConstraint=eastwest;" parent="RxH47U0A1Yjk8LxNgKOG-0" vertex="1">
                    <mxGeometry y="60" width="210" height="8" as="geometry"/>
                </mxCell>
                <mxCell id="RxH47U0A1Yjk8LxNgKOG-3" value="+ return(): String" style="text;strokeColor=none;fillColor=none;align=left;verticalAlign=top;spacingLeft=4;spacingRight=4;overflow=hidden;rotatable=0;points=[[0,0.5],[1,0.5]];portConstraint=eastwest;fontSize=16;" parent="RxH47U0A1Yjk8LxNgKOG-0" vertex="1">
                    <mxGeometry y="68" width="210" height="42" as="geometry"/>
                </mxCell>
                <mxCell id="RxH47U0A1Yjk8LxNgKOG-7" value="call&amp;nbsp;►" style="endArrow=none;html=1;rounded=0;align=center;verticalAlign=top;endFill=0;labelBackgroundColor=none;fontSize=16;entryX=1.004;entryY=0.838;entryDx=0;entryDy=0;entryPerimeter=0;exitX=0;exitY=0.5;exitDx=0;exitDy=0;" parent="Iuyj9420e749OwdUtZ9R-1" source="syfWyTUePcLdjiyzzt-1-1" target="Iuyj9420e749OwdUtZ9R-59" edge="1">
                    <mxGeometry x="0.7745" y="-34" relative="1" as="geometry">
                        <mxPoint x="1409.7" y="489.18" as="sourcePoint"/>
                        <mxPoint x="1140.0000000000002" y="130.00400000000008" as="targetPoint"/>
                        <mxPoint as="offset"/>
                        <Array as="points">
                            <mxPoint x="1230" y="448"/>
                            <mxPoint x="1230" y="193"/>
                        </Array>
                    </mxGeometry>
                </mxCell>
                <mxCell id="RxH47U0A1Yjk8LxNgKOG-8" value="1" style="resizable=0;html=1;align=left;verticalAlign=bottom;labelBackgroundColor=none;" parent="RxH47U0A1Yjk8LxNgKOG-7" connectable="0" vertex="1">
                    <mxGeometry x="-1" relative="1" as="geometry">
                        <mxPoint x="-19.12" y="-1.4100000000000001" as="offset"/>
                    </mxGeometry>
                </mxCell>
                <mxCell id="RxH47U0A1Yjk8LxNgKOG-9" value="1" style="resizable=0;html=1;align=right;verticalAlign=bottom;labelBackgroundColor=none;" parent="RxH47U0A1Yjk8LxNgKOG-7" connectable="0" vertex="1">
                    <mxGeometry x="1" relative="1" as="geometry">
                        <mxPoint x="12.25" y="-5.01" as="offset"/>
                    </mxGeometry>
                </mxCell>
                <mxCell id="RxH47U0A1Yjk8LxNgKOG-10" value="call&amp;nbsp;►" style="endArrow=none;html=1;rounded=0;align=center;verticalAlign=top;endFill=0;labelBackgroundColor=none;fontSize=16;entryX=1;entryY=0.421;entryDx=0;entryDy=0;entryPerimeter=0;" parent="Iuyj9420e749OwdUtZ9R-1" target="Iuyj9420e749OwdUtZ9R-59" edge="1">
                    <mxGeometry x="0.6619" y="-31" relative="1" as="geometry">
                        <mxPoint x="1322" y="260" as="sourcePoint"/>
                        <mxPoint x="1153" y="151" as="targetPoint"/>
                        <mxPoint as="offset"/>
                        <Array as="points">
                            <mxPoint x="1250" y="260"/>
                            <mxPoint x="1250" y="151"/>
                        </Array>
                    </mxGeometry>
                </mxCell>
                <mxCell id="RxH47U0A1Yjk8LxNgKOG-11" value="1" style="resizable=0;html=1;align=left;verticalAlign=bottom;labelBackgroundColor=none;" parent="RxH47U0A1Yjk8LxNgKOG-10" connectable="0" vertex="1">
                    <mxGeometry x="-1" relative="1" as="geometry">
                        <mxPoint x="-19.12" y="-1.4100000000000001" as="offset"/>
                    </mxGeometry>
                </mxCell>
                <mxCell id="RxH47U0A1Yjk8LxNgKOG-12" value="1" style="resizable=0;html=1;align=right;verticalAlign=bottom;labelBackgroundColor=none;" parent="RxH47U0A1Yjk8LxNgKOG-10" connectable="0" vertex="1">
                    <mxGeometry x="1" relative="1" as="geometry">
                        <mxPoint x="12.25" y="-5.01" as="offset"/>
                    </mxGeometry>
                </mxCell>
                <mxCell id="RxH47U0A1Yjk8LxNgKOG-13" value="call&amp;nbsp;►" style="endArrow=none;html=1;rounded=0;align=center;verticalAlign=top;endFill=0;labelBackgroundColor=none;fontSize=16;entryX=1.002;entryY=0.015;entryDx=0;entryDy=0;entryPerimeter=0;exitX=0.001;exitY=0.39;exitDx=0;exitDy=0;exitPerimeter=0;" parent="Iuyj9420e749OwdUtZ9R-1" source="wX3ppQXFWDXDYtBFlKPU-3" target="Iuyj9420e749OwdUtZ9R-59" edge="1">
                    <mxGeometry x="0.6055" y="-30" relative="1" as="geometry">
                        <mxPoint x="1322" y="210" as="sourcePoint"/>
                        <mxPoint x="1170" y="110" as="targetPoint"/>
                        <mxPoint as="offset"/>
                        <Array as="points">
                            <mxPoint x="1250" y="30"/>
                            <mxPoint x="1250" y="110"/>
                        </Array>
                    </mxGeometry>
                </mxCell>
                <mxCell id="RxH47U0A1Yjk8LxNgKOG-14" value="1" style="resizable=0;html=1;align=left;verticalAlign=bottom;labelBackgroundColor=none;" parent="RxH47U0A1Yjk8LxNgKOG-13" connectable="0" vertex="1">
                    <mxGeometry x="-1" relative="1" as="geometry">
                        <mxPoint x="-19.12" y="-1.4100000000000001" as="offset"/>
                    </mxGeometry>
                </mxCell>
                <mxCell id="RxH47U0A1Yjk8LxNgKOG-15" value="1" style="resizable=0;html=1;align=right;verticalAlign=bottom;labelBackgroundColor=none;" parent="RxH47U0A1Yjk8LxNgKOG-13" connectable="0" vertex="1">
                    <mxGeometry x="1" relative="1" as="geometry">
                        <mxPoint x="12.25" y="-5.01" as="offset"/>
                    </mxGeometry>
                </mxCell>
                <mxCell id="RxH47U0A1Yjk8LxNgKOG-16" value="call&amp;nbsp;►" style="endArrow=none;html=1;rounded=0;align=center;verticalAlign=top;endFill=0;labelBackgroundColor=none;fontSize=16;entryX=0.997;entryY=0.069;entryDx=0;entryDy=0;entryPerimeter=0;exitX=0;exitY=0.5;exitDx=0;exitDy=0;" parent="Iuyj9420e749OwdUtZ9R-1" source="RxH47U0A1Yjk8LxNgKOG-1" target="Iuyj9420e749OwdUtZ9R-57" edge="1">
                    <mxGeometry x="0.7719" y="-29" relative="1" as="geometry">
                        <mxPoint x="1300" y="-160" as="sourcePoint"/>
                        <mxPoint x="1160.6399999999999" y="119.53000000000009" as="targetPoint"/>
                        <mxPoint as="offset"/>
                        <Array as="points">
                            <mxPoint x="1230" y="-217"/>
                            <mxPoint x="1230" y="59"/>
                        </Array>
                    </mxGeometry>
                </mxCell>
                <mxCell id="RxH47U0A1Yjk8LxNgKOG-17" value="1" style="resizable=0;html=1;align=left;verticalAlign=bottom;labelBackgroundColor=none;" parent="RxH47U0A1Yjk8LxNgKOG-16" connectable="0" vertex="1">
                    <mxGeometry x="-1" relative="1" as="geometry">
                        <mxPoint x="-19.12" y="-1.4100000000000001" as="offset"/>
                    </mxGeometry>
                </mxCell>
                <mxCell id="RxH47U0A1Yjk8LxNgKOG-18" value="1" style="resizable=0;html=1;align=right;verticalAlign=bottom;labelBackgroundColor=none;" parent="RxH47U0A1Yjk8LxNgKOG-16" connectable="0" vertex="1">
                    <mxGeometry x="1" relative="1" as="geometry">
                        <mxPoint x="12.25" y="-5.01" as="offset"/>
                    </mxGeometry>
                </mxCell>
                <mxCell id="-aoKL0-RPo05xoox9bqx-0" value="ErrorPage" style="swimlane;fontStyle=1;align=center;verticalAlign=top;childLayout=stackLayout;horizontal=1;startSize=26;horizontalStack=0;resizeParent=1;resizeParentMax=0;resizeLast=0;collapsible=1;marginBottom=0;fontSize=16;" parent="Iuyj9420e749OwdUtZ9R-1" vertex="1">
                    <mxGeometry x="1690" y="75" width="130" height="100" as="geometry"/>
                </mxCell>
                <mxCell id="-aoKL0-RPo05xoox9bqx-1" value="- error: Error" style="text;strokeColor=none;fillColor=none;align=left;verticalAlign=top;spacingLeft=4;spacingRight=4;overflow=hidden;rotatable=0;points=[[0,0.5],[1,0.5]];portConstraint=eastwest;fontSize=16;" parent="-aoKL0-RPo05xoox9bqx-0" vertex="1">
                    <mxGeometry y="26" width="130" height="34" as="geometry"/>
                </mxCell>
                <mxCell id="-aoKL0-RPo05xoox9bqx-2" value="" style="line;strokeWidth=1;fillColor=none;align=left;verticalAlign=middle;spacingTop=-1;spacingLeft=3;spacingRight=3;rotatable=0;labelPosition=right;points=[];portConstraint=eastwest;" parent="-aoKL0-RPo05xoox9bqx-0" vertex="1">
                    <mxGeometry y="60" width="130" height="8" as="geometry"/>
                </mxCell>
                <mxCell id="-aoKL0-RPo05xoox9bqx-3" value="- return(): String" style="text;strokeColor=none;fillColor=none;align=left;verticalAlign=top;spacingLeft=4;spacingRight=4;overflow=hidden;rotatable=0;points=[[0,0.5],[1,0.5]];portConstraint=eastwest;fontSize=16;fontColor=#F0F0F0;" parent="-aoKL0-RPo05xoox9bqx-0" vertex="1">
                    <mxGeometry y="68" width="130" height="32" as="geometry"/>
                </mxCell>
                <mxCell id="-aoKL0-RPo05xoox9bqx-4" value="LoadingPage" style="swimlane;fontStyle=1;align=center;verticalAlign=top;childLayout=stackLayout;horizontal=1;startSize=26;horizontalStack=0;resizeParent=1;resizeParentMax=0;resizeLast=0;collapsible=1;marginBottom=0;fontSize=16;" parent="Iuyj9420e749OwdUtZ9R-1" vertex="1">
                    <mxGeometry x="1690" y="-80" width="130" height="100" as="geometry"/>
                </mxCell>
                <mxCell id="-aoKL0-RPo05xoox9bqx-5" value=" " style="text;strokeColor=none;fillColor=none;align=left;verticalAlign=top;spacingLeft=4;spacingRight=4;overflow=hidden;rotatable=0;points=[[0,0.5],[1,0.5]];portConstraint=eastwest;fontSize=16;" parent="-aoKL0-RPo05xoox9bqx-4" vertex="1">
                    <mxGeometry y="26" width="130" height="34" as="geometry"/>
                </mxCell>
                <mxCell id="-aoKL0-RPo05xoox9bqx-6" value="" style="line;strokeWidth=1;fillColor=none;align=left;verticalAlign=middle;spacingTop=-1;spacingLeft=3;spacingRight=3;rotatable=0;labelPosition=right;points=[];portConstraint=eastwest;" parent="-aoKL0-RPo05xoox9bqx-4" vertex="1">
                    <mxGeometry y="60" width="130" height="8" as="geometry"/>
                </mxCell>
                <mxCell id="-aoKL0-RPo05xoox9bqx-7" value="- return(): String" style="text;strokeColor=none;fillColor=none;align=left;verticalAlign=top;spacingLeft=4;spacingRight=4;overflow=hidden;rotatable=0;points=[[0,0.5],[1,0.5]];portConstraint=eastwest;fontSize=16;fontColor=#F0F0F0;" parent="-aoKL0-RPo05xoox9bqx-4" vertex="1">
                    <mxGeometry y="68" width="130" height="32" as="geometry"/>
                </mxCell>
                <mxCell id="-aoKL0-RPo05xoox9bqx-8" value="VerticalLayout" style="swimlane;fontStyle=1;align=center;verticalAlign=top;childLayout=stackLayout;horizontal=1;startSize=26;horizontalStack=0;resizeParent=1;resizeParentMax=0;resizeLast=0;collapsible=1;marginBottom=0;fontSize=16;" parent="Iuyj9420e749OwdUtZ9R-1" vertex="1">
                    <mxGeometry x="1920" y="75" width="190" height="120" as="geometry"/>
                </mxCell>
                <mxCell id="-aoKL0-RPo05xoox9bqx-9" value="- height: Number" style="text;strokeColor=none;fillColor=none;align=left;verticalAlign=top;spacingLeft=4;spacingRight=4;overflow=hidden;rotatable=0;points=[[0,0.5],[1,0.5]];portConstraint=eastwest;fontSize=16;" parent="-aoKL0-RPo05xoox9bqx-8" vertex="1">
                    <mxGeometry y="26" width="190" height="34" as="geometry"/>
                </mxCell>
                <mxCell id="-aoKL0-RPo05xoox9bqx-10" value="" style="line;strokeWidth=1;fillColor=none;align=left;verticalAlign=middle;spacingTop=-1;spacingLeft=3;spacingRight=3;rotatable=0;labelPosition=right;points=[];portConstraint=eastwest;" parent="-aoKL0-RPo05xoox9bqx-8" vertex="1">
                    <mxGeometry y="60" width="190" height="8" as="geometry"/>
                </mxCell>
                <mxCell id="-aoKL0-RPo05xoox9bqx-11" value="- return(): String" style="text;strokeColor=none;fillColor=none;align=left;verticalAlign=top;spacingLeft=4;spacingRight=4;overflow=hidden;rotatable=0;points=[[0,0.5],[1,0.5]];portConstraint=eastwest;fontSize=16;fontColor=#F0F0F0;" parent="-aoKL0-RPo05xoox9bqx-8" vertex="1">
                    <mxGeometry y="68" width="190" height="52" as="geometry"/>
                </mxCell>
                <mxCell id="dk5YXtmKRZam1eUzv5s_-0" value="call&amp;nbsp;►" style="endArrow=none;html=1;rounded=0;align=center;verticalAlign=top;endFill=0;labelBackgroundColor=none;fontSize=16;entryX=1;entryY=0.5;entryDx=0;entryDy=0;exitX=0;exitY=0.235;exitDx=0;exitDy=0;exitPerimeter=0;" parent="Iuyj9420e749OwdUtZ9R-1" source="-aoKL0-RPo05xoox9bqx-5" target="wX3ppQXFWDXDYtBFlKPU-1" edge="1">
                    <mxGeometry x="0.3776" y="-33" relative="1" as="geometry">
                        <mxPoint x="1639.5500000000002" y="-70.01999999999998" as="sourcePoint"/>
                        <mxPoint x="1470" y="9.529999999999973" as="targetPoint"/>
                        <mxPoint as="offset"/>
                        <Array as="points"/>
                    </mxGeometry>
                </mxCell>
                <mxCell id="dk5YXtmKRZam1eUzv5s_-1" value="1" style="resizable=0;html=1;align=left;verticalAlign=bottom;labelBackgroundColor=none;" parent="dk5YXtmKRZam1eUzv5s_-0" connectable="0" vertex="1">
                    <mxGeometry x="-1" relative="1" as="geometry">
                        <mxPoint x="-19.12" y="-1.4100000000000001" as="offset"/>
                    </mxGeometry>
                </mxCell>
                <mxCell id="dk5YXtmKRZam1eUzv5s_-2" value="1" style="resizable=0;html=1;align=right;verticalAlign=bottom;labelBackgroundColor=none;" parent="dk5YXtmKRZam1eUzv5s_-0" connectable="0" vertex="1">
                    <mxGeometry x="1" relative="1" as="geometry">
                        <mxPoint x="12.25" y="-5.01" as="offset"/>
                    </mxGeometry>
                </mxCell>
                <mxCell id="dk5YXtmKRZam1eUzv5s_-3" value="call&amp;nbsp;►" style="endArrow=none;html=1;rounded=0;align=center;verticalAlign=top;endFill=0;labelBackgroundColor=none;fontSize=16;exitX=0;exitY=0.5;exitDx=0;exitDy=0;entryX=0.995;entryY=0.72;entryDx=0;entryDy=0;entryPerimeter=0;" parent="Iuyj9420e749OwdUtZ9R-1" source="-aoKL0-RPo05xoox9bqx-1" target="wX3ppQXFWDXDYtBFlKPU-3" edge="1">
                    <mxGeometry x="0.5401" y="-27" relative="1" as="geometry">
                        <mxPoint x="1690" y="20" as="sourcePoint"/>
                        <mxPoint x="1530" y="19" as="targetPoint"/>
                        <mxPoint as="offset"/>
                        <Array as="points">
                            <mxPoint x="1645" y="118"/>
                            <mxPoint x="1645" y="57"/>
                        </Array>
                    </mxGeometry>
                </mxCell>
                <mxCell id="dk5YXtmKRZam1eUzv5s_-4" value="1" style="resizable=0;html=1;align=left;verticalAlign=bottom;labelBackgroundColor=none;" parent="dk5YXtmKRZam1eUzv5s_-3" connectable="0" vertex="1">
                    <mxGeometry x="-1" relative="1" as="geometry">
                        <mxPoint x="-19.12" y="-1.4100000000000001" as="offset"/>
                    </mxGeometry>
                </mxCell>
                <mxCell id="dk5YXtmKRZam1eUzv5s_-5" value="1" style="resizable=0;html=1;align=right;verticalAlign=bottom;labelBackgroundColor=none;" parent="dk5YXtmKRZam1eUzv5s_-3" connectable="0" vertex="1">
                    <mxGeometry x="1" relative="1" as="geometry">
                        <mxPoint x="12.25" y="-5.01" as="offset"/>
                    </mxGeometry>
                </mxCell>
                <mxCell id="dk5YXtmKRZam1eUzv5s_-9" value="call&amp;nbsp;►" style="endArrow=none;html=1;rounded=0;align=center;verticalAlign=top;endFill=0;labelBackgroundColor=none;fontSize=16;exitX=0;exitY=0.5;exitDx=0;exitDy=0;entryX=1;entryY=0.734;entryDx=0;entryDy=0;entryPerimeter=0;" parent="Iuyj9420e749OwdUtZ9R-1" source="-aoKL0-RPo05xoox9bqx-3" target="xSrFVyXJeDbZ33RNa4Ri-1" edge="1">
                    <mxGeometry x="0.5261" y="-30" relative="1" as="geometry">
                        <mxPoint x="1645" y="227.67" as="sourcePoint"/>
                        <mxPoint x="1530" y="180.00400000000005" as="targetPoint"/>
                        <mxPoint as="offset"/>
                        <Array as="points">
                            <mxPoint x="1645" y="159"/>
                            <mxPoint x="1645" y="210"/>
                        </Array>
                    </mxGeometry>
                </mxCell>
                <mxCell id="dk5YXtmKRZam1eUzv5s_-10" value="1" style="resizable=0;html=1;align=left;verticalAlign=bottom;labelBackgroundColor=none;" parent="dk5YXtmKRZam1eUzv5s_-9" connectable="0" vertex="1">
                    <mxGeometry x="-1" relative="1" as="geometry">
                        <mxPoint x="-18.12" y="16.52" as="offset"/>
                    </mxGeometry>
                </mxCell>
                <mxCell id="dk5YXtmKRZam1eUzv5s_-11" value="1" style="resizable=0;html=1;align=right;verticalAlign=bottom;labelBackgroundColor=none;" parent="dk5YXtmKRZam1eUzv5s_-9" connectable="0" vertex="1">
                    <mxGeometry x="1" relative="1" as="geometry">
                        <mxPoint x="12.25" y="-5.01" as="offset"/>
                    </mxGeometry>
                </mxCell>
                <mxCell id="dk5YXtmKRZam1eUzv5s_-12" value="call&amp;nbsp;►" style="endArrow=none;html=1;rounded=0;align=center;verticalAlign=top;endFill=0;labelBackgroundColor=none;fontSize=16;entryX=1.012;entryY=0.097;entryDx=0;entryDy=0;entryPerimeter=0;" parent="Iuyj9420e749OwdUtZ9R-1" target="xSrFVyXJeDbZ33RNa4Ri-1" edge="1">
                    <mxGeometry x="0.7325" y="-29" relative="1" as="geometry">
                        <mxPoint x="1689" y="-30" as="sourcePoint"/>
                        <mxPoint x="1560" y="120" as="targetPoint"/>
                        <mxPoint as="offset"/>
                        <Array as="points">
                            <mxPoint x="1620" y="-30"/>
                            <mxPoint x="1620" y="169"/>
                        </Array>
                    </mxGeometry>
                </mxCell>
                <mxCell id="dk5YXtmKRZam1eUzv5s_-13" value="1" style="resizable=0;html=1;align=left;verticalAlign=bottom;labelBackgroundColor=none;" parent="dk5YXtmKRZam1eUzv5s_-12" connectable="0" vertex="1">
                    <mxGeometry x="-1" relative="1" as="geometry">
                        <mxPoint x="-19.12" y="15.14" as="offset"/>
                    </mxGeometry>
                </mxCell>
                <mxCell id="dk5YXtmKRZam1eUzv5s_-14" value="1" style="resizable=0;html=1;align=right;verticalAlign=bottom;labelBackgroundColor=none;" parent="dk5YXtmKRZam1eUzv5s_-12" connectable="0" vertex="1">
                    <mxGeometry x="1" relative="1" as="geometry">
                        <mxPoint x="12.25" y="-5.01" as="offset"/>
                    </mxGeometry>
                </mxCell>
                <mxCell id="dk5YXtmKRZam1eUzv5s_-16" value="▲&lt;br&gt;call" style="endArrow=none;html=1;rounded=0;align=center;verticalAlign=top;endFill=0;labelBackgroundColor=none;fontSize=16;entryX=1;entryY=0.5;entryDx=0;entryDy=0;exitX=0.626;exitY=1.058;exitDx=0;exitDy=0;exitPerimeter=0;" parent="Iuyj9420e749OwdUtZ9R-1" source="-aoKL0-RPo05xoox9bqx-11" target="syfWyTUePcLdjiyzzt-1-1" edge="1">
                    <mxGeometry x="-0.8894" y="-19" relative="1" as="geometry">
                        <mxPoint x="1960" y="310" as="sourcePoint"/>
                        <mxPoint x="1550" y="465.9760000000001" as="targetPoint"/>
                        <mxPoint y="1" as="offset"/>
                        <Array as="points">
                            <mxPoint x="2039" y="448"/>
                        </Array>
                    </mxGeometry>
                </mxCell>
                <mxCell id="dk5YXtmKRZam1eUzv5s_-17" value="1" style="resizable=0;html=1;align=left;verticalAlign=bottom;labelBackgroundColor=none;" parent="dk5YXtmKRZam1eUzv5s_-16" connectable="0" vertex="1">
                    <mxGeometry x="-1" relative="1" as="geometry">
                        <mxPoint x="-18.12" y="16.52" as="offset"/>
                    </mxGeometry>
                </mxCell>
                <mxCell id="dk5YXtmKRZam1eUzv5s_-18" value="1" style="resizable=0;html=1;align=right;verticalAlign=bottom;labelBackgroundColor=none;" parent="dk5YXtmKRZam1eUzv5s_-16" connectable="0" vertex="1">
                    <mxGeometry x="1" relative="1" as="geometry">
                        <mxPoint x="12.25" y="-5.01" as="offset"/>
                    </mxGeometry>
                </mxCell>
                <mxCell id="dk5YXtmKRZam1eUzv5s_-19" value="call ►" style="endArrow=none;html=1;rounded=0;align=center;verticalAlign=top;endFill=0;labelBackgroundColor=none;fontSize=16;entryX=1;entryY=0.1;entryDx=0;entryDy=0;exitX=0.211;exitY=1.058;exitDx=0;exitDy=0;exitPerimeter=0;entryPerimeter=0;" parent="Iuyj9420e749OwdUtZ9R-1" source="-aoKL0-RPo05xoox9bqx-11" target="xSrFVyXJeDbZ33RNa4Ri-3" edge="1">
                    <mxGeometry x="-0.5063" y="-26" relative="1" as="geometry">
                        <mxPoint x="2048.9399999999996" y="208.01600000000008" as="sourcePoint"/>
                        <mxPoint x="1540" y="458" as="targetPoint"/>
                        <mxPoint as="offset"/>
                        <Array as="points">
                            <mxPoint x="1960" y="246"/>
                        </Array>
                    </mxGeometry>
                </mxCell>
                <mxCell id="dk5YXtmKRZam1eUzv5s_-20" value="1" style="resizable=0;html=1;align=left;verticalAlign=bottom;labelBackgroundColor=none;" parent="dk5YXtmKRZam1eUzv5s_-19" connectable="0" vertex="1">
                    <mxGeometry x="-1" relative="1" as="geometry">
                        <mxPoint x="-18.12" y="16.52" as="offset"/>
                    </mxGeometry>
                </mxCell>
                <mxCell id="dk5YXtmKRZam1eUzv5s_-21" value="1" style="resizable=0;html=1;align=right;verticalAlign=bottom;labelBackgroundColor=none;" parent="dk5YXtmKRZam1eUzv5s_-19" connectable="0" vertex="1">
                    <mxGeometry x="1" relative="1" as="geometry">
                        <mxPoint x="12.25" y="-5.01" as="offset"/>
                    </mxGeometry>
                </mxCell>
                <mxCell id="dk5YXtmKRZam1eUzv5s_-22" value="call&lt;br&gt;▼" style="endArrow=none;html=1;rounded=0;align=center;verticalAlign=top;endFill=0;labelBackgroundColor=none;fontSize=16;exitX=0.75;exitY=0;exitDx=0;exitDy=0;entryX=0.995;entryY=0.058;entryDx=0;entryDy=0;entryPerimeter=0;" parent="Iuyj9420e749OwdUtZ9R-1" target="wX3ppQXFWDXDYtBFlKPU-0" edge="1">
                    <mxGeometry x="-0.8159" y="23" relative="1" as="geometry">
                        <mxPoint x="2083.55" y="75" as="sourcePoint"/>
                        <mxPoint x="1549.9999999999998" y="-98.02999999999997" as="targetPoint"/>
                        <mxPoint as="offset"/>
                        <Array as="points">
                            <mxPoint x="2084.05" y="-98"/>
                        </Array>
                    </mxGeometry>
                </mxCell>
                <mxCell id="dk5YXtmKRZam1eUzv5s_-23" value="1" style="resizable=0;html=1;align=left;verticalAlign=bottom;labelBackgroundColor=none;" parent="dk5YXtmKRZam1eUzv5s_-22" connectable="0" vertex="1">
                    <mxGeometry x="-1" relative="1" as="geometry">
                        <mxPoint x="-18.12" y="-5" as="offset"/>
                    </mxGeometry>
                </mxCell>
                <mxCell id="dk5YXtmKRZam1eUzv5s_-24" value="1" style="resizable=0;html=1;align=right;verticalAlign=bottom;labelBackgroundColor=none;" parent="dk5YXtmKRZam1eUzv5s_-22" connectable="0" vertex="1">
                    <mxGeometry x="1" relative="1" as="geometry">
                        <mxPoint x="13.95" y="-5.01" as="offset"/>
                    </mxGeometry>
                </mxCell>
                <mxCell id="dk5YXtmKRZam1eUzv5s_-25" value="call&lt;br&gt;▼" style="endArrow=none;html=1;rounded=0;align=center;verticalAlign=top;endFill=0;labelBackgroundColor=none;fontSize=16;entryX=1;entryY=0.5;entryDx=0;entryDy=0;exitX=0.266;exitY=-0.01;exitDx=0;exitDy=0;exitPerimeter=0;" parent="Iuyj9420e749OwdUtZ9R-1" source="-aoKL0-RPo05xoox9bqx-8" target="-aoKL0-RPo05xoox9bqx-5" edge="1">
                    <mxGeometry x="-0.4307" y="19" relative="1" as="geometry">
                        <mxPoint x="1990" y="70" as="sourcePoint"/>
                        <mxPoint x="1869.9999999999998" y="-40.00000000000002" as="targetPoint"/>
                        <mxPoint as="offset"/>
                        <Array as="points">
                            <mxPoint x="1970" y="-37"/>
                        </Array>
                    </mxGeometry>
                </mxCell>
                <mxCell id="dk5YXtmKRZam1eUzv5s_-26" value="1" style="resizable=0;html=1;align=left;verticalAlign=bottom;labelBackgroundColor=none;" parent="dk5YXtmKRZam1eUzv5s_-25" connectable="0" vertex="1">
                    <mxGeometry x="-1" relative="1" as="geometry">
                        <mxPoint x="-18.12" y="-5" as="offset"/>
                    </mxGeometry>
                </mxCell>
                <mxCell id="dk5YXtmKRZam1eUzv5s_-27" value="1" style="resizable=0;html=1;align=right;verticalAlign=bottom;labelBackgroundColor=none;" parent="dk5YXtmKRZam1eUzv5s_-25" connectable="0" vertex="1">
                    <mxGeometry x="1" relative="1" as="geometry">
                        <mxPoint x="13.95" y="-5.01" as="offset"/>
                    </mxGeometry>
                </mxCell>
                <mxCell id="dk5YXtmKRZam1eUzv5s_-31" value="call&amp;nbsp;►" style="endArrow=none;html=1;rounded=0;align=center;verticalAlign=top;endFill=0;labelBackgroundColor=none;fontSize=16;entryX=1;entryY=0.5;entryDx=0;entryDy=0;exitX=0;exitY=0.5;exitDx=0;exitDy=0;" parent="Iuyj9420e749OwdUtZ9R-1" source="-aoKL0-RPo05xoox9bqx-9" target="-aoKL0-RPo05xoox9bqx-1" edge="1">
                    <mxGeometry y="-28" relative="1" as="geometry">
                        <mxPoint x="1969.9999999999995" y="60.989999999999895" as="sourcePoint"/>
                        <mxPoint x="1810.0000000000005" y="60" as="targetPoint"/>
                        <mxPoint as="offset"/>
                        <Array as="points"/>
                    </mxGeometry>
                </mxCell>
                <mxCell id="dk5YXtmKRZam1eUzv5s_-32" value="1" style="resizable=0;html=1;align=left;verticalAlign=bottom;labelBackgroundColor=none;" parent="dk5YXtmKRZam1eUzv5s_-31" connectable="0" vertex="1">
                    <mxGeometry x="-1" relative="1" as="geometry">
                        <mxPoint x="-19.12" y="-1.4100000000000001" as="offset"/>
                    </mxGeometry>
                </mxCell>
                <mxCell id="dk5YXtmKRZam1eUzv5s_-33" value="1" style="resizable=0;html=1;align=right;verticalAlign=bottom;labelBackgroundColor=none;" parent="dk5YXtmKRZam1eUzv5s_-31" connectable="0" vertex="1">
                    <mxGeometry x="1" relative="1" as="geometry">
                        <mxPoint x="12.25" y="-5.01" as="offset"/>
                    </mxGeometry>
                </mxCell>
            </root>
        </mxGraphModel>
    </diagram>
    <diagram id="Rg9eSjmUxdqUJ2BzFib1" name="Firebase">
        <mxGraphModel dx="1823" dy="-252" grid="1" gridSize="10" guides="1" tooltips="1" connect="1" arrows="1" fold="1" page="0" pageScale="1" pageWidth="827" pageHeight="1169" math="0" shadow="0">
            <root>
                <mxCell id="CKTQr_0cf5ij4ClCfj-L-0"/>
                <mxCell id="CKTQr_0cf5ij4ClCfj-L-1" parent="CKTQr_0cf5ij4ClCfj-L-0"/>
                <mxCell id="VmO1uxnCJwceUl9EYfPC-0" value="store" style="swimlane;fontStyle=1;align=center;verticalAlign=top;childLayout=stackLayout;horizontal=1;startSize=26;horizontalStack=0;resizeParent=1;resizeParentMax=0;resizeLast=0;collapsible=1;marginBottom=0;fontSize=16;" parent="CKTQr_0cf5ij4ClCfj-L-1" vertex="1">
                    <mxGeometry x="130" y="1190" width="360" height="180" as="geometry"/>
                </mxCell>
                <mxCell id="VmO1uxnCJwceUl9EYfPC-1" value="- collection: Collection [*]" style="text;strokeColor=none;fillColor=none;align=left;verticalAlign=top;spacingLeft=4;spacingRight=4;overflow=hidden;rotatable=0;points=[[0,0.5],[1,0.5]];portConstraint=eastwest;fontSize=16;" parent="VmO1uxnCJwceUl9EYfPC-0" vertex="1">
                    <mxGeometry y="26" width="360" height="34" as="geometry"/>
                </mxCell>
                <mxCell id="VmO1uxnCJwceUl9EYfPC-2" value="" style="line;strokeWidth=1;fillColor=none;align=left;verticalAlign=middle;spacingTop=-1;spacingLeft=3;spacingRight=3;rotatable=0;labelPosition=right;points=[];portConstraint=eastwest;" parent="VmO1uxnCJwceUl9EYfPC-0" vertex="1">
                    <mxGeometry y="60" width="360" height="8" as="geometry"/>
                </mxCell>
                <mxCell id="VmO1uxnCJwceUl9EYfPC-3" value="- users(): Collection&#10;- user(uid: String): Document&#10;- ref(path: String)&#10;- bills(): Collection&#10;- bill(bid: String): Document" style="text;strokeColor=none;fillColor=none;align=left;verticalAlign=top;spacingLeft=4;spacingRight=4;overflow=hidden;rotatable=0;points=[[0,0.5],[1,0.5]];portConstraint=eastwest;fontSize=16;fontColor=#F0F0F0;" parent="VmO1uxnCJwceUl9EYfPC-0" vertex="1">
                    <mxGeometry y="68" width="360" height="112" as="geometry"/>
                </mxCell>
                <mxCell id="VmO1uxnCJwceUl9EYfPC-4" value="window.firebase" style="swimlane;fontStyle=5;align=center;verticalAlign=top;childLayout=stackLayout;horizontal=1;startSize=26;horizontalStack=0;resizeParent=1;resizeParentMax=0;resizeLast=0;collapsible=1;marginBottom=0;fontSize=16;" parent="CKTQr_0cf5ij4ClCfj-L-1" vertex="1">
                    <mxGeometry x="-570" y="1325" width="290" height="160" as="geometry"/>
                </mxCell>
                <mxCell id="VmO1uxnCJwceUl9EYfPC-5" value=" " style="text;strokeColor=none;fillColor=none;align=left;verticalAlign=top;spacingLeft=4;spacingRight=4;overflow=hidden;rotatable=0;points=[[0,0.5],[1,0.5]];portConstraint=eastwest;fontSize=16;" parent="VmO1uxnCJwceUl9EYfPC-4" vertex="1">
                    <mxGeometry y="26" width="290" height="34" as="geometry"/>
                </mxCell>
                <mxCell id="VmO1uxnCJwceUl9EYfPC-6" value="" style="line;strokeWidth=1;fillColor=none;align=left;verticalAlign=middle;spacingTop=-1;spacingLeft=3;spacingRight=3;rotatable=0;labelPosition=right;points=[];portConstraint=eastwest;" parent="VmO1uxnCJwceUl9EYfPC-4" vertex="1">
                    <mxGeometry y="60" width="290" height="8" as="geometry"/>
                </mxCell>
                <mxCell id="VmO1uxnCJwceUl9EYfPC-7" value="- initializeApp(firebaseConfig: Object)&#10;- firestore()&#10;- storage()" style="text;strokeColor=none;fillColor=none;align=left;verticalAlign=top;spacingLeft=4;spacingRight=4;overflow=hidden;rotatable=0;points=[[0,0.5],[1,0.5]];portConstraint=eastwest;fontSize=16;fontColor=#F0F0F0;" parent="VmO1uxnCJwceUl9EYfPC-4" vertex="1">
                    <mxGeometry y="68" width="290" height="92" as="geometry"/>
                </mxCell>
                <mxCell id="VmO1uxnCJwceUl9EYfPC-8" value="Collection" style="swimlane;fontStyle=1;align=center;verticalAlign=top;childLayout=stackLayout;horizontal=1;startSize=26;horizontalStack=0;resizeParent=1;resizeParentMax=0;resizeLast=0;collapsible=1;marginBottom=0;fontSize=16;" parent="CKTQr_0cf5ij4ClCfj-L-1" vertex="1">
                    <mxGeometry x="570" y="1070" width="220" height="140" as="geometry"/>
                </mxCell>
                <mxCell id="VmO1uxnCJwceUl9EYfPC-9" value="- document: Document [*]" style="text;strokeColor=none;fillColor=none;align=left;verticalAlign=top;spacingLeft=4;spacingRight=4;overflow=hidden;rotatable=0;points=[[0,0.5],[1,0.5]];portConstraint=eastwest;fontSize=16;" parent="VmO1uxnCJwceUl9EYfPC-8" vertex="1">
                    <mxGeometry y="26" width="220" height="34" as="geometry"/>
                </mxCell>
                <mxCell id="VmO1uxnCJwceUl9EYfPC-10" value="" style="line;strokeWidth=1;fillColor=none;align=left;verticalAlign=middle;spacingTop=-1;spacingLeft=3;spacingRight=3;rotatable=0;labelPosition=right;points=[];portConstraint=eastwest;" parent="VmO1uxnCJwceUl9EYfPC-8" vertex="1">
                    <mxGeometry y="60" width="220" height="8" as="geometry"/>
                </mxCell>
                <mxCell id="VmO1uxnCJwceUl9EYfPC-11" value="- doc(key: String): Document&#10;- add(object: Document)&#10;- get(): Array" style="text;strokeColor=none;fillColor=none;align=left;verticalAlign=top;spacingLeft=4;spacingRight=4;overflow=hidden;rotatable=0;points=[[0,0.5],[1,0.5]];portConstraint=eastwest;fontSize=16;fontColor=#F0F0F0;" parent="VmO1uxnCJwceUl9EYfPC-8" vertex="1">
                    <mxGeometry y="68" width="220" height="72" as="geometry"/>
                </mxCell>
                <mxCell id="VmO1uxnCJwceUl9EYfPC-12" value="Document" style="swimlane;fontStyle=1;align=center;verticalAlign=top;childLayout=stackLayout;horizontal=1;startSize=26;horizontalStack=0;resizeParent=1;resizeParentMax=0;resizeLast=0;collapsible=1;marginBottom=0;fontSize=16;" parent="CKTQr_0cf5ij4ClCfj-L-1" vertex="1">
                    <mxGeometry x="780" y="1244" width="150" height="140" as="geometry"/>
                </mxCell>
                <mxCell id="VmO1uxnCJwceUl9EYfPC-13" value="- data: any [*]" style="text;strokeColor=none;fillColor=none;align=left;verticalAlign=top;spacingLeft=4;spacingRight=4;overflow=hidden;rotatable=0;points=[[0,0.5],[1,0.5]];portConstraint=eastwest;fontSize=16;" parent="VmO1uxnCJwceUl9EYfPC-12" vertex="1">
                    <mxGeometry y="26" width="150" height="34" as="geometry"/>
                </mxCell>
                <mxCell id="VmO1uxnCJwceUl9EYfPC-14" value="" style="line;strokeWidth=1;fillColor=none;align=left;verticalAlign=middle;spacingTop=-1;spacingLeft=3;spacingRight=3;rotatable=0;labelPosition=right;points=[];portConstraint=eastwest;" parent="VmO1uxnCJwceUl9EYfPC-12" vertex="1">
                    <mxGeometry y="60" width="150" height="8" as="geometry"/>
                </mxCell>
                <mxCell id="VmO1uxnCJwceUl9EYfPC-15" value="- get(): data [*]&#10;- set(data: any)&#10;- update(data: any)" style="text;strokeColor=none;fillColor=none;align=left;verticalAlign=top;spacingLeft=4;spacingRight=4;overflow=hidden;rotatable=0;points=[[0,0.5],[1,0.5]];portConstraint=eastwest;fontSize=16;fontColor=#F0F0F0;" parent="VmO1uxnCJwceUl9EYfPC-12" vertex="1">
                    <mxGeometry y="68" width="150" height="72" as="geometry"/>
                </mxCell>
                <mxCell id="VmO1uxnCJwceUl9EYfPC-16" value="storage" style="swimlane;fontStyle=1;align=center;verticalAlign=top;childLayout=stackLayout;horizontal=1;startSize=26;horizontalStack=0;resizeParent=1;resizeParentMax=0;resizeLast=0;collapsible=1;marginBottom=0;fontSize=16;" parent="CKTQr_0cf5ij4ClCfj-L-1" vertex="1">
                    <mxGeometry x="130" y="1420" width="250" height="130" as="geometry"/>
                </mxCell>
                <mxCell id="VmO1uxnCJwceUl9EYfPC-17" value="reference: Reference [*]" style="text;strokeColor=none;fillColor=none;align=left;verticalAlign=top;spacingLeft=4;spacingRight=4;overflow=hidden;rotatable=0;points=[[0,0.5],[1,0.5]];portConstraint=eastwest;fontSize=16;" parent="VmO1uxnCJwceUl9EYfPC-16" vertex="1">
                    <mxGeometry y="26" width="250" height="34" as="geometry"/>
                </mxCell>
                <mxCell id="VmO1uxnCJwceUl9EYfPC-18" value="" style="line;strokeWidth=1;fillColor=none;align=left;verticalAlign=middle;spacingTop=-1;spacingLeft=3;spacingRight=3;rotatable=0;labelPosition=right;points=[];portConstraint=eastwest;" parent="VmO1uxnCJwceUl9EYfPC-16" vertex="1">
                    <mxGeometry y="60" width="250" height="8" as="geometry"/>
                </mxCell>
                <mxCell id="VmO1uxnCJwceUl9EYfPC-19" value="- ref([path: String]): Reference " style="text;strokeColor=none;fillColor=none;align=left;verticalAlign=top;spacingLeft=4;spacingRight=4;overflow=hidden;rotatable=0;points=[[0,0.5],[1,0.5]];portConstraint=eastwest;fontSize=16;fontColor=#F0F0F0;" parent="VmO1uxnCJwceUl9EYfPC-16" vertex="1">
                    <mxGeometry y="68" width="250" height="62" as="geometry"/>
                </mxCell>
                <mxCell id="VmO1uxnCJwceUl9EYfPC-20" value="Reference" style="swimlane;fontStyle=1;align=center;verticalAlign=top;childLayout=stackLayout;horizontal=1;startSize=26;horizontalStack=0;resizeParent=1;resizeParentMax=0;resizeLast=0;collapsible=1;marginBottom=0;fontSize=16;" parent="CKTQr_0cf5ij4ClCfj-L-1" vertex="1">
                    <mxGeometry x="440" y="1420" width="270" height="230" as="geometry"/>
                </mxCell>
                <mxCell id="VmO1uxnCJwceUl9EYfPC-21" value="- downloadURL: String&#10;- file: File" style="text;strokeColor=none;fillColor=none;align=left;verticalAlign=top;spacingLeft=4;spacingRight=4;overflow=hidden;rotatable=0;points=[[0,0.5],[1,0.5]];portConstraint=eastwest;fontSize=16;" parent="VmO1uxnCJwceUl9EYfPC-20" vertex="1">
                    <mxGeometry y="26" width="270" height="64" as="geometry"/>
                </mxCell>
                <mxCell id="VmO1uxnCJwceUl9EYfPC-22" value="" style="line;strokeWidth=1;fillColor=none;align=left;verticalAlign=middle;spacingTop=-1;spacingLeft=3;spacingRight=3;rotatable=0;labelPosition=right;points=[];portConstraint=eastwest;" parent="VmO1uxnCJwceUl9EYfPC-20" vertex="1">
                    <mxGeometry y="90" width="270" height="8" as="geometry"/>
                </mxCell>
                <mxCell id="VmO1uxnCJwceUl9EYfPC-23" value="- child(deepLevel: String): Reference&#10;- fullpath(): String&#10;- name(): String&#10;- parent(): Reference&#10;- put(file: File): this&#10;- getDownloadURL(): String" style="text;strokeColor=none;fillColor=none;align=left;verticalAlign=top;spacingLeft=4;spacingRight=4;overflow=hidden;rotatable=0;points=[[0,0.5],[1,0.5]];portConstraint=eastwest;fontSize=16;fontColor=#F0F0F0;" parent="VmO1uxnCJwceUl9EYfPC-20" vertex="1">
                    <mxGeometry y="98" width="270" height="132" as="geometry"/>
                </mxCell>
                <mxCell id="VmO1uxnCJwceUl9EYfPC-24" value="Firestore" style="swimlane;fontStyle=1;align=center;verticalAlign=top;childLayout=stackLayout;horizontal=1;startSize=26;horizontalStack=0;resizeParent=1;resizeParentMax=0;resizeLast=0;collapsible=1;marginBottom=0;fontSize=16;" parent="CKTQr_0cf5ij4ClCfj-L-1" vertex="1">
                    <mxGeometry x="-215" y="1350" width="290" height="110" as="geometry"/>
                </mxCell>
                <mxCell id="VmO1uxnCJwceUl9EYfPC-25" value="- store: window.firebase.firestore()&#10;- storage: window.firebase.storage()" style="text;strokeColor=none;fillColor=none;align=left;verticalAlign=top;spacingLeft=4;spacingRight=4;overflow=hidden;rotatable=0;points=[[0,0.5],[1,0.5]];portConstraint=eastwest;fontSize=16;" parent="VmO1uxnCJwceUl9EYfPC-24" vertex="1">
                    <mxGeometry y="26" width="290" height="54" as="geometry"/>
                </mxCell>
                <mxCell id="VmO1uxnCJwceUl9EYfPC-26" value="" style="line;strokeWidth=1;fillColor=none;align=left;verticalAlign=middle;spacingTop=-1;spacingLeft=3;spacingRight=3;rotatable=0;labelPosition=right;points=[];portConstraint=eastwest;" parent="VmO1uxnCJwceUl9EYfPC-24" vertex="1">
                    <mxGeometry y="80" width="290" height="8" as="geometry"/>
                </mxCell>
                <mxCell id="VmO1uxnCJwceUl9EYfPC-27" value=" " style="text;strokeColor=none;fillColor=none;align=left;verticalAlign=top;spacingLeft=4;spacingRight=4;overflow=hidden;rotatable=0;points=[[0,0.5],[1,0.5]];portConstraint=eastwest;fontSize=16;fontColor=#F0F0F0;" parent="VmO1uxnCJwceUl9EYfPC-24" vertex="1">
                    <mxGeometry y="88" width="290" height="22" as="geometry"/>
                </mxCell>
                <mxCell id="VmO1uxnCJwceUl9EYfPC-28" value="" style="endArrow=none;html=1;rounded=0;align=center;verticalAlign=top;endFill=0;labelBackgroundColor=none;" parent="CKTQr_0cf5ij4ClCfj-L-1" source="VmO1uxnCJwceUl9EYfPC-8" target="VmO1uxnCJwceUl9EYfPC-12" edge="1">
                    <mxGeometry x="0.1243" y="25" relative="1" as="geometry">
                        <mxPoint x="610" y="1250" as="sourcePoint"/>
                        <mxPoint x="770" y="1250" as="targetPoint"/>
                        <Array as="points">
                            <mxPoint x="855" y="1140"/>
                        </Array>
                        <mxPoint as="offset"/>
                    </mxGeometry>
                </mxCell>
                <mxCell id="VmO1uxnCJwceUl9EYfPC-29" value="1" style="resizable=0;html=1;align=left;verticalAlign=bottom;labelBackgroundColor=none;" parent="VmO1uxnCJwceUl9EYfPC-28" connectable="0" vertex="1">
                    <mxGeometry x="-1" relative="1" as="geometry"/>
                </mxCell>
                <mxCell id="VmO1uxnCJwceUl9EYfPC-30" value="*" style="resizable=0;html=1;align=right;verticalAlign=bottom;labelBackgroundColor=none;" parent="VmO1uxnCJwceUl9EYfPC-28" connectable="0" vertex="1">
                    <mxGeometry x="1" relative="1" as="geometry">
                        <mxPoint x="8" y="1.8599999999999994" as="offset"/>
                    </mxGeometry>
                </mxCell>
                <mxCell id="VmO1uxnCJwceUl9EYfPC-31" value="" style="endArrow=none;html=1;rounded=0;align=center;verticalAlign=top;endFill=0;labelBackgroundColor=none;" parent="CKTQr_0cf5ij4ClCfj-L-1" source="VmO1uxnCJwceUl9EYfPC-0" target="VmO1uxnCJwceUl9EYfPC-12" edge="1">
                    <mxGeometry x="0.1243" y="25" relative="1" as="geometry">
                        <mxPoint x="605" y="1280" as="sourcePoint"/>
                        <mxPoint x="670" y="1384" as="targetPoint"/>
                        <Array as="points">
                            <mxPoint x="640" y="1280"/>
                            <mxPoint x="640" y="1313"/>
                        </Array>
                        <mxPoint as="offset"/>
                    </mxGeometry>
                </mxCell>
                <mxCell id="VmO1uxnCJwceUl9EYfPC-32" value="1" style="resizable=0;html=1;align=left;verticalAlign=bottom;labelBackgroundColor=none;" parent="VmO1uxnCJwceUl9EYfPC-31" connectable="0" vertex="1">
                    <mxGeometry x="-1" relative="1" as="geometry"/>
                </mxCell>
                <mxCell id="VmO1uxnCJwceUl9EYfPC-33" value="*" style="resizable=0;html=1;align=right;verticalAlign=bottom;labelBackgroundColor=none;" parent="VmO1uxnCJwceUl9EYfPC-31" connectable="0" vertex="1">
                    <mxGeometry x="1" relative="1" as="geometry">
                        <mxPoint x="-3" y="1.8599999999999994" as="offset"/>
                    </mxGeometry>
                </mxCell>
                <mxCell id="VmO1uxnCJwceUl9EYfPC-34" value="" style="endArrow=none;html=1;rounded=0;align=center;verticalAlign=top;endFill=0;labelBackgroundColor=none;exitX=1;exitY=0.5;exitDx=0;exitDy=0;" parent="CKTQr_0cf5ij4ClCfj-L-1" source="VmO1uxnCJwceUl9EYfPC-1" target="VmO1uxnCJwceUl9EYfPC-8" edge="1">
                    <mxGeometry x="0.1243" y="25" relative="1" as="geometry">
                        <mxPoint x="500" y="1290" as="sourcePoint"/>
                        <mxPoint x="790" y="1323.6511627906978" as="targetPoint"/>
                        <Array as="points">
                            <mxPoint x="520" y="1233"/>
                            <mxPoint x="520" y="1140"/>
                        </Array>
                        <mxPoint as="offset"/>
                    </mxGeometry>
                </mxCell>
                <mxCell id="VmO1uxnCJwceUl9EYfPC-35" value="1" style="resizable=0;html=1;align=left;verticalAlign=bottom;labelBackgroundColor=none;" parent="VmO1uxnCJwceUl9EYfPC-34" connectable="0" vertex="1">
                    <mxGeometry x="-1" relative="1" as="geometry"/>
                </mxCell>
                <mxCell id="VmO1uxnCJwceUl9EYfPC-36" value="*" style="resizable=0;html=1;align=right;verticalAlign=bottom;labelBackgroundColor=none;" parent="VmO1uxnCJwceUl9EYfPC-34" connectable="0" vertex="1">
                    <mxGeometry x="1" relative="1" as="geometry">
                        <mxPoint x="-3" y="1.8599999999999994" as="offset"/>
                    </mxGeometry>
                </mxCell>
                <mxCell id="VmO1uxnCJwceUl9EYfPC-37" value="" style="endArrow=none;html=1;rounded=0;align=center;verticalAlign=top;endFill=0;labelBackgroundColor=none;exitX=1;exitY=0.5;exitDx=0;exitDy=0;" parent="CKTQr_0cf5ij4ClCfj-L-1" source="VmO1uxnCJwceUl9EYfPC-17" target="VmO1uxnCJwceUl9EYfPC-20" edge="1">
                    <mxGeometry x="0.1243" y="25" relative="1" as="geometry">
                        <mxPoint x="500" y="1290" as="sourcePoint"/>
                        <mxPoint x="790" y="1323.6511627906975" as="targetPoint"/>
                        <Array as="points">
                            <mxPoint x="410" y="1463"/>
                            <mxPoint x="410" y="1535"/>
                        </Array>
                        <mxPoint as="offset"/>
                    </mxGeometry>
                </mxCell>
                <mxCell id="VmO1uxnCJwceUl9EYfPC-38" value="1" style="resizable=0;html=1;align=left;verticalAlign=bottom;labelBackgroundColor=none;" parent="VmO1uxnCJwceUl9EYfPC-37" connectable="0" vertex="1">
                    <mxGeometry x="-1" relative="1" as="geometry"/>
                </mxCell>
                <mxCell id="VmO1uxnCJwceUl9EYfPC-39" value="*" style="resizable=0;html=1;align=right;verticalAlign=bottom;labelBackgroundColor=none;" parent="VmO1uxnCJwceUl9EYfPC-37" connectable="0" vertex="1">
                    <mxGeometry x="1" relative="1" as="geometry">
                        <mxPoint x="-4" y="1.8599999999999994" as="offset"/>
                    </mxGeometry>
                </mxCell>
                <mxCell id="VmO1uxnCJwceUl9EYfPC-40" value="" style="endArrow=none;html=1;rounded=0;align=center;verticalAlign=top;endFill=0;labelBackgroundColor=none;" parent="CKTQr_0cf5ij4ClCfj-L-1" source="VmO1uxnCJwceUl9EYfPC-24" target="VmO1uxnCJwceUl9EYfPC-0" edge="1">
                    <mxGeometry x="0.1243" y="25" relative="1" as="geometry">
                        <mxPoint x="60" y="1210" as="sourcePoint"/>
                        <mxPoint x="120" y="1282" as="targetPoint"/>
                        <Array as="points">
                            <mxPoint x="100" y="1400"/>
                            <mxPoint x="100" y="1280"/>
                        </Array>
                        <mxPoint as="offset"/>
                    </mxGeometry>
                </mxCell>
                <mxCell id="VmO1uxnCJwceUl9EYfPC-41" value="1" style="resizable=0;html=1;align=left;verticalAlign=bottom;labelBackgroundColor=none;" parent="VmO1uxnCJwceUl9EYfPC-40" connectable="0" vertex="1">
                    <mxGeometry x="-1" relative="1" as="geometry"/>
                </mxCell>
                <mxCell id="VmO1uxnCJwceUl9EYfPC-42" value="1" style="resizable=0;html=1;align=right;verticalAlign=bottom;labelBackgroundColor=none;" parent="VmO1uxnCJwceUl9EYfPC-40" connectable="0" vertex="1">
                    <mxGeometry x="1" relative="1" as="geometry">
                        <mxPoint x="-4" y="1.8599999999999994" as="offset"/>
                    </mxGeometry>
                </mxCell>
                <mxCell id="VmO1uxnCJwceUl9EYfPC-43" value="" style="endArrow=none;html=1;rounded=0;align=center;verticalAlign=top;endFill=0;labelBackgroundColor=none;exitX=1;exitY=1;exitDx=0;exitDy=0;exitPerimeter=0;entryX=0;entryY=0.07;entryDx=0;entryDy=0;entryPerimeter=0;" parent="CKTQr_0cf5ij4ClCfj-L-1" source="VmO1uxnCJwceUl9EYfPC-25" target="VmO1uxnCJwceUl9EYfPC-19" edge="1">
                    <mxGeometry x="0.1243" y="25" relative="1" as="geometry">
                        <mxPoint x="85" y="1410.7352941176473" as="sourcePoint"/>
                        <mxPoint x="140" y="1290" as="targetPoint"/>
                        <Array as="points">
                            <mxPoint x="110" y="1430"/>
                            <mxPoint x="110" y="1492"/>
                        </Array>
                        <mxPoint as="offset"/>
                    </mxGeometry>
                </mxCell>
                <mxCell id="VmO1uxnCJwceUl9EYfPC-44" value="1" style="resizable=0;html=1;align=left;verticalAlign=bottom;labelBackgroundColor=none;" parent="VmO1uxnCJwceUl9EYfPC-43" connectable="0" vertex="1">
                    <mxGeometry x="-1" relative="1" as="geometry"/>
                </mxCell>
                <mxCell id="VmO1uxnCJwceUl9EYfPC-45" value="1" style="resizable=0;html=1;align=right;verticalAlign=bottom;labelBackgroundColor=none;" parent="VmO1uxnCJwceUl9EYfPC-43" connectable="0" vertex="1">
                    <mxGeometry x="1" relative="1" as="geometry">
                        <mxPoint x="-4" y="1.8599999999999994" as="offset"/>
                    </mxGeometry>
                </mxCell>
                <mxCell id="VmO1uxnCJwceUl9EYfPC-46" value="" style="endArrow=none;html=1;rounded=0;align=center;verticalAlign=top;endFill=0;labelBackgroundColor=none;" parent="CKTQr_0cf5ij4ClCfj-L-1" source="VmO1uxnCJwceUl9EYfPC-4" target="VmO1uxnCJwceUl9EYfPC-24" edge="1">
                    <mxGeometry x="0.1243" y="25" relative="1" as="geometry">
                        <mxPoint x="85" y="1440" as="sourcePoint"/>
                        <mxPoint x="140" y="1502.3399999999997" as="targetPoint"/>
                        <Array as="points"/>
                        <mxPoint as="offset"/>
                    </mxGeometry>
                </mxCell>
                <mxCell id="VmO1uxnCJwceUl9EYfPC-47" value="1" style="resizable=0;html=1;align=left;verticalAlign=bottom;labelBackgroundColor=none;" parent="VmO1uxnCJwceUl9EYfPC-46" connectable="0" vertex="1">
                    <mxGeometry x="-1" relative="1" as="geometry"/>
                </mxCell>
                <mxCell id="VmO1uxnCJwceUl9EYfPC-48" value="1" style="resizable=0;html=1;align=right;verticalAlign=bottom;labelBackgroundColor=none;" parent="VmO1uxnCJwceUl9EYfPC-46" connectable="0" vertex="1">
                    <mxGeometry x="1" relative="1" as="geometry">
                        <mxPoint x="-2" y="0.8599999999999994" as="offset"/>
                    </mxGeometry>
                </mxCell>
            </root>
        </mxGraphModel>
    </diagram>
</mxfile>